<mxfile host="65bd71144e" pages="6">
    <diagram id="2NuxsWYmh7lLzONtNu7x" name="第 1 页">
        <mxGraphModel dx="881" dy="813" grid="1" gridSize="10" guides="1" tooltips="1" connect="1" arrows="1" fold="1" page="1" pageScale="1" pageWidth="827" pageHeight="1169" math="0" shadow="0">
            <root>
                <mxCell id="0"/>
                <mxCell id="1" parent="0"/>
                <mxCell id="10" style="edgeStyle=none;rounded=0;orthogonalLoop=1;jettySize=auto;html=1;exitX=0.5;exitY=0;exitDx=0;exitDy=0;entryX=0.5;entryY=1;entryDx=0;entryDy=0;endArrow=none;endFill=0;" parent="1" source="2" target="3" edge="1">
                    <mxGeometry relative="1" as="geometry"/>
                </mxCell>
                <mxCell id="11" style="edgeStyle=none;rounded=0;orthogonalLoop=1;jettySize=auto;html=1;exitX=0.5;exitY=0;exitDx=0;exitDy=0;entryX=0.5;entryY=1;entryDx=0;entryDy=0;endArrow=none;endFill=0;" parent="1" source="2" target="6" edge="1">
                    <mxGeometry relative="1" as="geometry"/>
                </mxCell>
                <mxCell id="2" value="" style="whiteSpace=wrap;html=1;fillColor=#d5e8d4;strokeColor=#82b366;" parent="1" vertex="1">
                    <mxGeometry x="120" y="360" width="40" height="20" as="geometry"/>
                </mxCell>
                <mxCell id="15" style="edgeStyle=none;rounded=0;orthogonalLoop=1;jettySize=auto;html=1;exitX=0.5;exitY=1;exitDx=0;exitDy=0;entryX=0.5;entryY=0;entryDx=0;entryDy=0;endArrow=none;endFill=0;" parent="1" source="3" target="4" edge="1">
                    <mxGeometry relative="1" as="geometry"/>
                </mxCell>
                <mxCell id="26" style="edgeStyle=none;rounded=0;orthogonalLoop=1;jettySize=auto;html=1;exitX=0.5;exitY=0;exitDx=0;exitDy=0;entryX=0.5;entryY=1;entryDx=0;entryDy=0;endArrow=none;endFill=0;" parent="1" source="3" target="25" edge="1">
                    <mxGeometry relative="1" as="geometry"/>
                </mxCell>
                <mxCell id="3" value="" style="ellipse;whiteSpace=wrap;html=1;fillColor=#f8cecc;strokeColor=#b85450;shadow=0;" parent="1" vertex="1">
                    <mxGeometry x="50" y="260" width="20" height="20" as="geometry"/>
                </mxCell>
                <mxCell id="4" value="" style="whiteSpace=wrap;html=1;fillColor=#d5e8d4;strokeColor=#82b366;" parent="1" vertex="1">
                    <mxGeometry x="200" y="360" width="40" height="20" as="geometry"/>
                </mxCell>
                <mxCell id="20" style="edgeStyle=none;rounded=0;orthogonalLoop=1;jettySize=auto;html=1;exitX=0.5;exitY=0;exitDx=0;exitDy=0;entryX=0.5;entryY=1;entryDx=0;entryDy=0;endArrow=none;endFill=0;" parent="1" source="5" target="9" edge="1">
                    <mxGeometry relative="1" as="geometry"/>
                </mxCell>
                <mxCell id="21" style="edgeStyle=none;rounded=0;orthogonalLoop=1;jettySize=auto;html=1;exitX=0.5;exitY=0;exitDx=0;exitDy=0;entryX=0.5;entryY=1;entryDx=0;entryDy=0;endArrow=none;endFill=0;" parent="1" source="5" target="8" edge="1">
                    <mxGeometry relative="1" as="geometry"/>
                </mxCell>
                <mxCell id="22" style="edgeStyle=none;rounded=0;orthogonalLoop=1;jettySize=auto;html=1;exitX=0.5;exitY=0;exitDx=0;exitDy=0;entryX=0.5;entryY=1;entryDx=0;entryDy=0;endArrow=none;endFill=0;" parent="1" source="5" target="7" edge="1">
                    <mxGeometry relative="1" as="geometry"/>
                </mxCell>
                <mxCell id="23" style="edgeStyle=none;rounded=0;orthogonalLoop=1;jettySize=auto;html=1;exitX=0.5;exitY=0;exitDx=0;exitDy=0;endArrow=none;endFill=0;" parent="1" source="5" edge="1">
                    <mxGeometry relative="1" as="geometry">
                        <mxPoint x="140" y="280" as="targetPoint"/>
                    </mxGeometry>
                </mxCell>
                <mxCell id="24" style="edgeStyle=none;rounded=0;orthogonalLoop=1;jettySize=auto;html=1;exitX=0.25;exitY=0;exitDx=0;exitDy=0;entryX=0.5;entryY=1;entryDx=0;entryDy=0;endArrow=none;endFill=0;" parent="1" source="5" target="3" edge="1">
                    <mxGeometry relative="1" as="geometry"/>
                </mxCell>
                <mxCell id="5" value="" style="whiteSpace=wrap;html=1;fillColor=#d5e8d4;strokeColor=#82b366;" parent="1" vertex="1">
                    <mxGeometry x="280" y="360" width="40" height="20" as="geometry"/>
                </mxCell>
                <mxCell id="16" style="edgeStyle=none;rounded=0;orthogonalLoop=1;jettySize=auto;html=1;exitX=0.5;exitY=1;exitDx=0;exitDy=0;endArrow=none;endFill=0;" parent="1" source="6" edge="1">
                    <mxGeometry relative="1" as="geometry">
                        <mxPoint x="220" y="360" as="targetPoint"/>
                    </mxGeometry>
                </mxCell>
                <mxCell id="27" style="edgeStyle=none;rounded=0;orthogonalLoop=1;jettySize=auto;html=1;exitX=0.5;exitY=0;exitDx=0;exitDy=0;entryX=0.5;entryY=1;entryDx=0;entryDy=0;endArrow=none;endFill=0;" parent="1" source="6" target="25" edge="1">
                    <mxGeometry relative="1" as="geometry"/>
                </mxCell>
                <mxCell id="6" value="" style="ellipse;whiteSpace=wrap;html=1;fillColor=#f8cecc;strokeColor=#b85450;shadow=0;" parent="1" vertex="1">
                    <mxGeometry x="130" y="260" width="20" height="20" as="geometry"/>
                </mxCell>
                <mxCell id="12" style="edgeStyle=none;rounded=0;orthogonalLoop=1;jettySize=auto;html=1;exitX=0.5;exitY=1;exitDx=0;exitDy=0;entryX=0.5;entryY=0;entryDx=0;entryDy=0;endArrow=none;endFill=0;" parent="1" source="7" target="2" edge="1">
                    <mxGeometry relative="1" as="geometry"/>
                </mxCell>
                <mxCell id="17" style="edgeStyle=none;rounded=0;orthogonalLoop=1;jettySize=auto;html=1;exitX=0.5;exitY=1;exitDx=0;exitDy=0;endArrow=none;endFill=0;" parent="1" source="7" edge="1">
                    <mxGeometry relative="1" as="geometry">
                        <mxPoint x="220" y="360" as="targetPoint"/>
                    </mxGeometry>
                </mxCell>
                <mxCell id="28" style="edgeStyle=none;rounded=0;orthogonalLoop=1;jettySize=auto;html=1;exitX=0.5;exitY=0;exitDx=0;exitDy=0;entryX=0.5;entryY=1;entryDx=0;entryDy=0;endArrow=none;endFill=0;" parent="1" source="7" target="25" edge="1">
                    <mxGeometry relative="1" as="geometry"/>
                </mxCell>
                <mxCell id="7" value="" style="ellipse;whiteSpace=wrap;html=1;fillColor=#f8cecc;strokeColor=#b85450;shadow=0;" parent="1" vertex="1">
                    <mxGeometry x="210" y="260" width="20" height="20" as="geometry"/>
                </mxCell>
                <mxCell id="13" style="edgeStyle=none;rounded=0;orthogonalLoop=1;jettySize=auto;html=1;exitX=0.5;exitY=1;exitDx=0;exitDy=0;endArrow=none;endFill=0;" parent="1" source="8" edge="1">
                    <mxGeometry relative="1" as="geometry">
                        <mxPoint x="140" y="360" as="targetPoint"/>
                    </mxGeometry>
                </mxCell>
                <mxCell id="18" style="edgeStyle=none;rounded=0;orthogonalLoop=1;jettySize=auto;html=1;exitX=0.5;exitY=1;exitDx=0;exitDy=0;endArrow=none;endFill=0;" parent="1" source="8" edge="1">
                    <mxGeometry relative="1" as="geometry">
                        <mxPoint x="220" y="360" as="targetPoint"/>
                    </mxGeometry>
                </mxCell>
                <mxCell id="29" style="edgeStyle=none;rounded=0;orthogonalLoop=1;jettySize=auto;html=1;exitX=0.5;exitY=0;exitDx=0;exitDy=0;entryX=0.5;entryY=1;entryDx=0;entryDy=0;endArrow=none;endFill=0;" parent="1" source="8" target="25" edge="1">
                    <mxGeometry relative="1" as="geometry"/>
                </mxCell>
                <mxCell id="8" value="" style="ellipse;whiteSpace=wrap;html=1;fillColor=#f8cecc;strokeColor=#b85450;shadow=0;" parent="1" vertex="1">
                    <mxGeometry x="290" y="260" width="20" height="20" as="geometry"/>
                </mxCell>
                <mxCell id="14" style="edgeStyle=none;rounded=0;orthogonalLoop=1;jettySize=auto;html=1;exitX=0.5;exitY=1;exitDx=0;exitDy=0;entryX=0.5;entryY=0;entryDx=0;entryDy=0;endArrow=none;endFill=0;" parent="1" source="9" target="2" edge="1">
                    <mxGeometry relative="1" as="geometry"/>
                </mxCell>
                <mxCell id="19" style="edgeStyle=none;rounded=0;orthogonalLoop=1;jettySize=auto;html=1;exitX=0.5;exitY=1;exitDx=0;exitDy=0;endArrow=none;endFill=0;" parent="1" source="9" edge="1">
                    <mxGeometry relative="1" as="geometry">
                        <mxPoint x="220" y="360" as="targetPoint"/>
                    </mxGeometry>
                </mxCell>
                <mxCell id="30" style="edgeStyle=none;rounded=0;orthogonalLoop=1;jettySize=auto;html=1;exitX=0.5;exitY=0;exitDx=0;exitDy=0;entryX=0.5;entryY=1;entryDx=0;entryDy=0;endArrow=none;endFill=0;" parent="1" source="9" target="25" edge="1">
                    <mxGeometry relative="1" as="geometry"/>
                </mxCell>
                <mxCell id="9" value="" style="ellipse;whiteSpace=wrap;html=1;fillColor=#f8cecc;strokeColor=#b85450;shadow=0;" parent="1" vertex="1">
                    <mxGeometry x="370" y="260" width="20" height="20" as="geometry"/>
                </mxCell>
                <mxCell id="25" value="" style="whiteSpace=wrap;html=1;fillColor=#d5e8d4;strokeColor=#82b366;" parent="1" vertex="1">
                    <mxGeometry x="200" y="160" width="40" height="20" as="geometry"/>
                </mxCell>
                <mxCell id="31" value="我们" style="text;html=1;resizable=0;autosize=1;align=center;verticalAlign=middle;points=[];fillColor=none;strokeColor=none;rounded=0;" parent="1" vertex="1">
                    <mxGeometry x="30" y="390" width="40" height="20" as="geometry"/>
                </mxCell>
                <mxCell id="33" value="一起" style="text;html=1;resizable=0;autosize=1;align=center;verticalAlign=middle;points=[];fillColor=none;strokeColor=none;rounded=0;" parent="1" vertex="1">
                    <mxGeometry x="120" y="390" width="40" height="20" as="geometry"/>
                </mxCell>
                <mxCell id="34" value="去" style="text;html=1;resizable=0;autosize=1;align=center;verticalAlign=middle;points=[];fillColor=none;strokeColor=none;rounded=0;" parent="1" vertex="1">
                    <mxGeometry x="205" y="390" width="30" height="20" as="geometry"/>
                </mxCell>
                <mxCell id="35" value="图书馆" style="text;html=1;resizable=0;autosize=1;align=center;verticalAlign=middle;points=[];fillColor=none;strokeColor=none;rounded=0;" parent="1" vertex="1">
                    <mxGeometry x="275" y="390" width="50" height="20" as="geometry"/>
                </mxCell>
                <mxCell id="36" value="学习" style="text;html=1;resizable=0;autosize=1;align=center;verticalAlign=middle;points=[];fillColor=none;strokeColor=none;rounded=0;" parent="1" vertex="1">
                    <mxGeometry x="360" y="390" width="40" height="20" as="geometry"/>
                </mxCell>
                <mxCell id="37" value="吧" style="text;html=1;resizable=0;autosize=1;align=center;verticalAlign=middle;points=[];fillColor=none;strokeColor=none;rounded=0;" parent="1" vertex="1">
                    <mxGeometry x="445" y="390" width="30" height="20" as="geometry"/>
                </mxCell>
                <mxCell id="38" value="学习" style="text;html=1;resizable=0;autosize=1;align=center;verticalAlign=middle;points=[];fillColor=none;strokeColor=none;rounded=0;" parent="1" vertex="1">
                    <mxGeometry x="200" y="130" width="40" height="20" as="geometry"/>
                </mxCell>
            </root>
        </mxGraphModel>
    </diagram>
    <diagram id="4vlegFeVRNL_hbki-Seu" name="第 2 页">
        <mxGraphModel dx="881" dy="813" grid="1" gridSize="10" guides="1" tooltips="1" connect="1" arrows="1" fold="1" page="1" pageScale="1" pageWidth="827" pageHeight="1169" math="0" shadow="0">
            <root>
                <mxCell id="mm0Lusx4NMYDXVdWIbRg-0"/>
                <mxCell id="mm0Lusx4NMYDXVdWIbRg-1" parent="mm0Lusx4NMYDXVdWIbRg-0"/>
                <mxCell id="nVPXLXxx0watuyFMW0sS-0" style="edgeStyle=none;rounded=0;orthogonalLoop=1;jettySize=auto;html=1;exitX=0.5;exitY=0;exitDx=0;exitDy=0;entryX=0.5;entryY=1;entryDx=0;entryDy=0;endArrow=none;endFill=0;" parent="mm0Lusx4NMYDXVdWIbRg-1" source="nVPXLXxx0watuyFMW0sS-2" target="nVPXLXxx0watuyFMW0sS-5" edge="1">
                    <mxGeometry relative="1" as="geometry"/>
                </mxCell>
                <mxCell id="nVPXLXxx0watuyFMW0sS-1" style="edgeStyle=none;rounded=0;orthogonalLoop=1;jettySize=auto;html=1;exitX=0.5;exitY=0;exitDx=0;exitDy=0;entryX=0.5;entryY=1;entryDx=0;entryDy=0;endArrow=none;endFill=0;" parent="mm0Lusx4NMYDXVdWIbRg-1" source="nVPXLXxx0watuyFMW0sS-2" target="nVPXLXxx0watuyFMW0sS-15" edge="1">
                    <mxGeometry relative="1" as="geometry"/>
                </mxCell>
                <mxCell id="nVPXLXxx0watuyFMW0sS-2" value="" style="whiteSpace=wrap;html=1;fillColor=#d5e8d4;strokeColor=#82b366;" parent="mm0Lusx4NMYDXVdWIbRg-1" vertex="1">
                    <mxGeometry x="120" y="360" width="40" height="20" as="geometry"/>
                </mxCell>
                <mxCell id="nVPXLXxx0watuyFMW0sS-3" style="edgeStyle=none;rounded=0;orthogonalLoop=1;jettySize=auto;html=1;exitX=0.5;exitY=1;exitDx=0;exitDy=0;entryX=0.5;entryY=0;entryDx=0;entryDy=0;endArrow=none;endFill=0;" parent="mm0Lusx4NMYDXVdWIbRg-1" source="nVPXLXxx0watuyFMW0sS-5" target="nVPXLXxx0watuyFMW0sS-6" edge="1">
                    <mxGeometry relative="1" as="geometry"/>
                </mxCell>
                <mxCell id="nVPXLXxx0watuyFMW0sS-4" style="edgeStyle=none;rounded=0;orthogonalLoop=1;jettySize=auto;html=1;exitX=0.5;exitY=0;exitDx=0;exitDy=0;entryX=0.5;entryY=1;entryDx=0;entryDy=0;endArrow=none;endFill=0;" parent="mm0Lusx4NMYDXVdWIbRg-1" source="nVPXLXxx0watuyFMW0sS-5" target="nVPXLXxx0watuyFMW0sS-28" edge="1">
                    <mxGeometry relative="1" as="geometry"/>
                </mxCell>
                <mxCell id="nVPXLXxx0watuyFMW0sS-5" value="" style="ellipse;whiteSpace=wrap;html=1;fillColor=#f8cecc;strokeColor=#b85450;shadow=0;" parent="mm0Lusx4NMYDXVdWIbRg-1" vertex="1">
                    <mxGeometry x="50" y="260" width="20" height="20" as="geometry"/>
                </mxCell>
                <mxCell id="nVPXLXxx0watuyFMW0sS-6" value="" style="whiteSpace=wrap;html=1;fillColor=#d5e8d4;strokeColor=#82b366;" parent="mm0Lusx4NMYDXVdWIbRg-1" vertex="1">
                    <mxGeometry x="200" y="360" width="40" height="20" as="geometry"/>
                </mxCell>
                <mxCell id="nVPXLXxx0watuyFMW0sS-7" style="edgeStyle=none;rounded=0;orthogonalLoop=1;jettySize=auto;html=1;exitX=0.5;exitY=0;exitDx=0;exitDy=0;entryX=0.5;entryY=1;entryDx=0;entryDy=0;endArrow=none;endFill=0;" parent="mm0Lusx4NMYDXVdWIbRg-1" source="nVPXLXxx0watuyFMW0sS-12" target="nVPXLXxx0watuyFMW0sS-27" edge="1">
                    <mxGeometry relative="1" as="geometry"/>
                </mxCell>
                <mxCell id="nVPXLXxx0watuyFMW0sS-8" style="edgeStyle=none;rounded=0;orthogonalLoop=1;jettySize=auto;html=1;exitX=0.5;exitY=0;exitDx=0;exitDy=0;entryX=0.5;entryY=1;entryDx=0;entryDy=0;endArrow=none;endFill=0;" parent="mm0Lusx4NMYDXVdWIbRg-1" source="nVPXLXxx0watuyFMW0sS-12" target="nVPXLXxx0watuyFMW0sS-23" edge="1">
                    <mxGeometry relative="1" as="geometry"/>
                </mxCell>
                <mxCell id="nVPXLXxx0watuyFMW0sS-9" style="edgeStyle=none;rounded=0;orthogonalLoop=1;jettySize=auto;html=1;exitX=0.5;exitY=0;exitDx=0;exitDy=0;entryX=0.5;entryY=1;entryDx=0;entryDy=0;endArrow=none;endFill=0;" parent="mm0Lusx4NMYDXVdWIbRg-1" source="nVPXLXxx0watuyFMW0sS-12" target="nVPXLXxx0watuyFMW0sS-19" edge="1">
                    <mxGeometry relative="1" as="geometry"/>
                </mxCell>
                <mxCell id="nVPXLXxx0watuyFMW0sS-10" style="edgeStyle=none;rounded=0;orthogonalLoop=1;jettySize=auto;html=1;exitX=0.5;exitY=0;exitDx=0;exitDy=0;endArrow=none;endFill=0;" parent="mm0Lusx4NMYDXVdWIbRg-1" source="nVPXLXxx0watuyFMW0sS-12" edge="1">
                    <mxGeometry relative="1" as="geometry">
                        <mxPoint x="140" y="280" as="targetPoint"/>
                    </mxGeometry>
                </mxCell>
                <mxCell id="nVPXLXxx0watuyFMW0sS-11" style="edgeStyle=none;rounded=0;orthogonalLoop=1;jettySize=auto;html=1;exitX=0.25;exitY=0;exitDx=0;exitDy=0;entryX=0.5;entryY=1;entryDx=0;entryDy=0;endArrow=none;endFill=0;" parent="mm0Lusx4NMYDXVdWIbRg-1" source="nVPXLXxx0watuyFMW0sS-12" target="nVPXLXxx0watuyFMW0sS-5" edge="1">
                    <mxGeometry relative="1" as="geometry"/>
                </mxCell>
                <mxCell id="nVPXLXxx0watuyFMW0sS-91" style="edgeStyle=none;rounded=0;orthogonalLoop=1;jettySize=auto;html=1;endArrow=none;endFill=0;strokeWidth=5;startArrow=block;startFill=0;" parent="mm0Lusx4NMYDXVdWIbRg-1" edge="1">
                    <mxGeometry relative="1" as="geometry">
                        <mxPoint x="440" y="290" as="targetPoint"/>
                        <mxPoint x="350" y="350" as="sourcePoint"/>
                    </mxGeometry>
                </mxCell>
                <mxCell id="nVPXLXxx0watuyFMW0sS-12" value="" style="whiteSpace=wrap;html=1;fillColor=#a20025;strokeColor=#6F0000;fontColor=#ffffff;" parent="mm0Lusx4NMYDXVdWIbRg-1" vertex="1">
                    <mxGeometry x="280" y="360" width="40" height="20" as="geometry"/>
                </mxCell>
                <mxCell id="nVPXLXxx0watuyFMW0sS-13" style="edgeStyle=none;rounded=0;orthogonalLoop=1;jettySize=auto;html=1;exitX=0.5;exitY=1;exitDx=0;exitDy=0;endArrow=none;endFill=0;" parent="mm0Lusx4NMYDXVdWIbRg-1" source="nVPXLXxx0watuyFMW0sS-15" edge="1">
                    <mxGeometry relative="1" as="geometry">
                        <mxPoint x="220" y="360" as="targetPoint"/>
                    </mxGeometry>
                </mxCell>
                <mxCell id="nVPXLXxx0watuyFMW0sS-14" style="edgeStyle=none;rounded=0;orthogonalLoop=1;jettySize=auto;html=1;exitX=0.5;exitY=0;exitDx=0;exitDy=0;entryX=0.5;entryY=1;entryDx=0;entryDy=0;endArrow=none;endFill=0;" parent="mm0Lusx4NMYDXVdWIbRg-1" source="nVPXLXxx0watuyFMW0sS-15" target="nVPXLXxx0watuyFMW0sS-28" edge="1">
                    <mxGeometry relative="1" as="geometry"/>
                </mxCell>
                <mxCell id="nVPXLXxx0watuyFMW0sS-15" value="" style="ellipse;whiteSpace=wrap;html=1;fillColor=#f8cecc;strokeColor=#b85450;shadow=0;" parent="mm0Lusx4NMYDXVdWIbRg-1" vertex="1">
                    <mxGeometry x="130" y="260" width="20" height="20" as="geometry"/>
                </mxCell>
                <mxCell id="nVPXLXxx0watuyFMW0sS-16" style="edgeStyle=none;rounded=0;orthogonalLoop=1;jettySize=auto;html=1;exitX=0.5;exitY=1;exitDx=0;exitDy=0;entryX=0.5;entryY=0;entryDx=0;entryDy=0;endArrow=none;endFill=0;" parent="mm0Lusx4NMYDXVdWIbRg-1" source="nVPXLXxx0watuyFMW0sS-19" target="nVPXLXxx0watuyFMW0sS-2" edge="1">
                    <mxGeometry relative="1" as="geometry"/>
                </mxCell>
                <mxCell id="nVPXLXxx0watuyFMW0sS-17" style="edgeStyle=none;rounded=0;orthogonalLoop=1;jettySize=auto;html=1;exitX=0.5;exitY=1;exitDx=0;exitDy=0;endArrow=none;endFill=0;" parent="mm0Lusx4NMYDXVdWIbRg-1" source="nVPXLXxx0watuyFMW0sS-19" edge="1">
                    <mxGeometry relative="1" as="geometry">
                        <mxPoint x="220" y="360" as="targetPoint"/>
                    </mxGeometry>
                </mxCell>
                <mxCell id="nVPXLXxx0watuyFMW0sS-18" style="edgeStyle=none;rounded=0;orthogonalLoop=1;jettySize=auto;html=1;exitX=0.5;exitY=0;exitDx=0;exitDy=0;entryX=0.5;entryY=1;entryDx=0;entryDy=0;endArrow=none;endFill=0;" parent="mm0Lusx4NMYDXVdWIbRg-1" source="nVPXLXxx0watuyFMW0sS-19" target="nVPXLXxx0watuyFMW0sS-28" edge="1">
                    <mxGeometry relative="1" as="geometry"/>
                </mxCell>
                <mxCell id="nVPXLXxx0watuyFMW0sS-19" value="" style="ellipse;whiteSpace=wrap;html=1;fillColor=#f8cecc;strokeColor=#b85450;shadow=0;" parent="mm0Lusx4NMYDXVdWIbRg-1" vertex="1">
                    <mxGeometry x="210" y="260" width="20" height="20" as="geometry"/>
                </mxCell>
                <mxCell id="nVPXLXxx0watuyFMW0sS-20" style="edgeStyle=none;rounded=0;orthogonalLoop=1;jettySize=auto;html=1;exitX=0.5;exitY=1;exitDx=0;exitDy=0;endArrow=none;endFill=0;" parent="mm0Lusx4NMYDXVdWIbRg-1" source="nVPXLXxx0watuyFMW0sS-23" edge="1">
                    <mxGeometry relative="1" as="geometry">
                        <mxPoint x="140" y="360" as="targetPoint"/>
                    </mxGeometry>
                </mxCell>
                <mxCell id="nVPXLXxx0watuyFMW0sS-21" style="edgeStyle=none;rounded=0;orthogonalLoop=1;jettySize=auto;html=1;exitX=0.5;exitY=1;exitDx=0;exitDy=0;endArrow=none;endFill=0;" parent="mm0Lusx4NMYDXVdWIbRg-1" source="nVPXLXxx0watuyFMW0sS-23" edge="1">
                    <mxGeometry relative="1" as="geometry">
                        <mxPoint x="220" y="360" as="targetPoint"/>
                    </mxGeometry>
                </mxCell>
                <mxCell id="nVPXLXxx0watuyFMW0sS-22" style="edgeStyle=none;rounded=0;orthogonalLoop=1;jettySize=auto;html=1;exitX=0.5;exitY=0;exitDx=0;exitDy=0;entryX=0.5;entryY=1;entryDx=0;entryDy=0;endArrow=none;endFill=0;" parent="mm0Lusx4NMYDXVdWIbRg-1" source="nVPXLXxx0watuyFMW0sS-23" target="nVPXLXxx0watuyFMW0sS-28" edge="1">
                    <mxGeometry relative="1" as="geometry"/>
                </mxCell>
                <mxCell id="nVPXLXxx0watuyFMW0sS-23" value="" style="ellipse;whiteSpace=wrap;html=1;fillColor=#f8cecc;strokeColor=#b85450;shadow=0;" parent="mm0Lusx4NMYDXVdWIbRg-1" vertex="1">
                    <mxGeometry x="290" y="260" width="20" height="20" as="geometry"/>
                </mxCell>
                <mxCell id="nVPXLXxx0watuyFMW0sS-24" style="edgeStyle=none;rounded=0;orthogonalLoop=1;jettySize=auto;html=1;exitX=0.5;exitY=1;exitDx=0;exitDy=0;entryX=0.5;entryY=0;entryDx=0;entryDy=0;endArrow=none;endFill=0;" parent="mm0Lusx4NMYDXVdWIbRg-1" source="nVPXLXxx0watuyFMW0sS-27" target="nVPXLXxx0watuyFMW0sS-2" edge="1">
                    <mxGeometry relative="1" as="geometry"/>
                </mxCell>
                <mxCell id="nVPXLXxx0watuyFMW0sS-25" style="edgeStyle=none;rounded=0;orthogonalLoop=1;jettySize=auto;html=1;exitX=0.5;exitY=1;exitDx=0;exitDy=0;endArrow=none;endFill=0;" parent="mm0Lusx4NMYDXVdWIbRg-1" source="nVPXLXxx0watuyFMW0sS-27" edge="1">
                    <mxGeometry relative="1" as="geometry">
                        <mxPoint x="220" y="360" as="targetPoint"/>
                    </mxGeometry>
                </mxCell>
                <mxCell id="nVPXLXxx0watuyFMW0sS-26" style="edgeStyle=none;rounded=0;orthogonalLoop=1;jettySize=auto;html=1;exitX=0.5;exitY=0;exitDx=0;exitDy=0;entryX=0.5;entryY=1;entryDx=0;entryDy=0;endArrow=none;endFill=0;" parent="mm0Lusx4NMYDXVdWIbRg-1" source="nVPXLXxx0watuyFMW0sS-27" target="nVPXLXxx0watuyFMW0sS-28" edge="1">
                    <mxGeometry relative="1" as="geometry"/>
                </mxCell>
                <mxCell id="nVPXLXxx0watuyFMW0sS-27" value="" style="ellipse;whiteSpace=wrap;html=1;fillColor=#f8cecc;strokeColor=#b85450;shadow=0;" parent="mm0Lusx4NMYDXVdWIbRg-1" vertex="1">
                    <mxGeometry x="370" y="260" width="20" height="20" as="geometry"/>
                </mxCell>
                <mxCell id="nVPXLXxx0watuyFMW0sS-28" value="" style="whiteSpace=wrap;html=1;fillColor=#d5e8d4;strokeColor=#82b366;" parent="mm0Lusx4NMYDXVdWIbRg-1" vertex="1">
                    <mxGeometry x="200" y="160" width="40" height="20" as="geometry"/>
                </mxCell>
                <mxCell id="nVPXLXxx0watuyFMW0sS-29" value="我们" style="text;html=1;resizable=0;autosize=1;align=center;verticalAlign=middle;points=[];fillColor=none;strokeColor=none;rounded=0;" parent="mm0Lusx4NMYDXVdWIbRg-1" vertex="1">
                    <mxGeometry x="30" y="390" width="40" height="20" as="geometry"/>
                </mxCell>
                <mxCell id="nVPXLXxx0watuyFMW0sS-30" value="一起" style="text;html=1;resizable=0;autosize=1;align=center;verticalAlign=middle;points=[];fillColor=none;strokeColor=none;rounded=0;" parent="mm0Lusx4NMYDXVdWIbRg-1" vertex="1">
                    <mxGeometry x="120" y="390" width="40" height="20" as="geometry"/>
                </mxCell>
                <mxCell id="nVPXLXxx0watuyFMW0sS-31" value="去" style="text;html=1;resizable=0;autosize=1;align=center;verticalAlign=middle;points=[];fillColor=none;strokeColor=none;rounded=0;" parent="mm0Lusx4NMYDXVdWIbRg-1" vertex="1">
                    <mxGeometry x="205" y="390" width="30" height="20" as="geometry"/>
                </mxCell>
                <mxCell id="nVPXLXxx0watuyFMW0sS-32" value="图书馆" style="text;html=1;resizable=0;autosize=1;align=center;verticalAlign=middle;points=[];fillColor=none;strokeColor=none;rounded=0;" parent="mm0Lusx4NMYDXVdWIbRg-1" vertex="1">
                    <mxGeometry x="275" y="390" width="50" height="20" as="geometry"/>
                </mxCell>
                <mxCell id="nVPXLXxx0watuyFMW0sS-33" value="学习" style="text;html=1;resizable=0;autosize=1;align=center;verticalAlign=middle;points=[];fillColor=none;strokeColor=none;rounded=0;" parent="mm0Lusx4NMYDXVdWIbRg-1" vertex="1">
                    <mxGeometry x="360" y="390" width="40" height="20" as="geometry"/>
                </mxCell>
                <mxCell id="nVPXLXxx0watuyFMW0sS-34" value="吧" style="text;html=1;resizable=0;autosize=1;align=center;verticalAlign=middle;points=[];fillColor=none;strokeColor=none;rounded=0;" parent="mm0Lusx4NMYDXVdWIbRg-1" vertex="1">
                    <mxGeometry x="445" y="390" width="30" height="20" as="geometry"/>
                </mxCell>
                <mxCell id="nVPXLXxx0watuyFMW0sS-35" value="学习" style="text;html=1;resizable=0;autosize=1;align=center;verticalAlign=middle;points=[];fillColor=none;strokeColor=none;rounded=0;" parent="mm0Lusx4NMYDXVdWIbRg-1" vertex="1">
                    <mxGeometry x="200" y="130" width="40" height="20" as="geometry"/>
                </mxCell>
                <mxCell id="nVPXLXxx0watuyFMW0sS-36" value="" style="ellipse;whiteSpace=wrap;html=1;fillColor=#1ba1e2;strokeColor=#006EAF;shadow=0;fontColor=#ffffff;" parent="mm0Lusx4NMYDXVdWIbRg-1" vertex="1">
                    <mxGeometry x="456.2463768115942" y="263" width="22.492753623188406" height="25.11111111111111" as="geometry"/>
                </mxCell>
                <mxCell id="nVPXLXxx0watuyFMW0sS-51" style="edgeStyle=none;rounded=0;orthogonalLoop=1;jettySize=auto;html=1;exitX=0.5;exitY=0;exitDx=0;exitDy=0;endArrow=none;endFill=0;" parent="mm0Lusx4NMYDXVdWIbRg-1" source="nVPXLXxx0watuyFMW0sS-37" edge="1">
                    <mxGeometry x="445" y="150" as="geometry">
                        <mxPoint x="602.4492753623189" y="175.1111111111111" as="targetPoint"/>
                    </mxGeometry>
                </mxCell>
                <mxCell id="nVPXLXxx0watuyFMW0sS-37" value="" style="ellipse;whiteSpace=wrap;html=1;fillColor=#1ba1e2;strokeColor=#006EAF;shadow=0;fontColor=#ffffff;" parent="mm0Lusx4NMYDXVdWIbRg-1" vertex="1">
                    <mxGeometry x="523.7246376811595" y="263" width="22.492753623188406" height="25.11111111111111" as="geometry"/>
                </mxCell>
                <mxCell id="nVPXLXxx0watuyFMW0sS-54" style="edgeStyle=none;rounded=0;orthogonalLoop=1;jettySize=auto;html=1;exitX=0;exitY=0;exitDx=0;exitDy=0;endArrow=none;endFill=0;" parent="mm0Lusx4NMYDXVdWIbRg-1" source="nVPXLXxx0watuyFMW0sS-38" edge="1">
                    <mxGeometry x="445" y="150" as="geometry">
                        <mxPoint x="534.9710144927536" y="171.34444444444443" as="targetPoint"/>
                    </mxGeometry>
                </mxCell>
                <mxCell id="nVPXLXxx0watuyFMW0sS-56" style="edgeStyle=none;rounded=0;orthogonalLoop=1;jettySize=auto;html=1;exitX=0.5;exitY=0;exitDx=0;exitDy=0;endArrow=none;endFill=0;" parent="mm0Lusx4NMYDXVdWIbRg-1" source="nVPXLXxx0watuyFMW0sS-38" edge="1">
                    <mxGeometry x="445" y="150" as="geometry">
                        <mxPoint x="669.9275362318841" y="175.1111111111111" as="targetPoint"/>
                    </mxGeometry>
                </mxCell>
                <mxCell id="nVPXLXxx0watuyFMW0sS-38" value="" style="ellipse;whiteSpace=wrap;html=1;fillColor=#1ba1e2;strokeColor=#006EAF;shadow=0;fontColor=#ffffff;" parent="mm0Lusx4NMYDXVdWIbRg-1" vertex="1">
                    <mxGeometry x="591.2028985507246" y="263" width="22.492753623188406" height="25.11111111111111" as="geometry"/>
                </mxCell>
                <mxCell id="nVPXLXxx0watuyFMW0sS-59" style="edgeStyle=none;rounded=0;orthogonalLoop=1;jettySize=auto;html=1;exitX=0.5;exitY=0;exitDx=0;exitDy=0;endArrow=none;endFill=0;" parent="mm0Lusx4NMYDXVdWIbRg-1" source="nVPXLXxx0watuyFMW0sS-39" edge="1">
                    <mxGeometry x="445" y="150" as="geometry">
                        <mxPoint x="602.4492753623189" y="175.1111111111111" as="targetPoint"/>
                    </mxGeometry>
                </mxCell>
                <mxCell id="nVPXLXxx0watuyFMW0sS-62" style="edgeStyle=none;rounded=0;orthogonalLoop=1;jettySize=auto;html=1;exitX=0.5;exitY=0;exitDx=0;exitDy=0;endArrow=none;endFill=0;" parent="mm0Lusx4NMYDXVdWIbRg-1" source="nVPXLXxx0watuyFMW0sS-39" edge="1">
                    <mxGeometry x="445" y="150" as="geometry">
                        <mxPoint x="737.4057971014493" y="175.1111111111111" as="targetPoint"/>
                    </mxGeometry>
                </mxCell>
                <mxCell id="nVPXLXxx0watuyFMW0sS-39" value="" style="ellipse;whiteSpace=wrap;html=1;fillColor=#1ba1e2;strokeColor=#006EAF;shadow=0;fontColor=#ffffff;" parent="mm0Lusx4NMYDXVdWIbRg-1" vertex="1">
                    <mxGeometry x="658.6811594202899" y="263" width="22.492753623188406" height="25.11111111111111" as="geometry"/>
                </mxCell>
                <mxCell id="nVPXLXxx0watuyFMW0sS-65" style="edgeStyle=none;rounded=0;orthogonalLoop=1;jettySize=auto;html=1;endArrow=none;endFill=0;" parent="mm0Lusx4NMYDXVdWIbRg-1" edge="1">
                    <mxGeometry x="445" y="150" as="geometry">
                        <mxPoint x="669.9275362318841" y="175.1111111111111" as="targetPoint"/>
                        <mxPoint x="737.4057971014493" y="266.76666666666665" as="sourcePoint"/>
                    </mxGeometry>
                </mxCell>
                <mxCell id="nVPXLXxx0watuyFMW0sS-40" value="" style="ellipse;whiteSpace=wrap;html=1;fillColor=#1ba1e2;strokeColor=#006EAF;shadow=0;fontColor=#ffffff;" parent="mm0Lusx4NMYDXVdWIbRg-1" vertex="1">
                    <mxGeometry x="726.1594202898551" y="263" width="22.492753623188406" height="25.11111111111111" as="geometry"/>
                </mxCell>
                <mxCell id="nVPXLXxx0watuyFMW0sS-41" value="" style="ellipse;whiteSpace=wrap;html=1;fillColor=#1ba1e2;strokeColor=#006EAF;shadow=0;fontColor=#ffffff;" parent="mm0Lusx4NMYDXVdWIbRg-1" vertex="1">
                    <mxGeometry x="793.6376811594203" y="263" width="22.492753623188406" height="25.11111111111111" as="geometry"/>
                </mxCell>
                <mxCell id="nVPXLXxx0watuyFMW0sS-42" value="" style="ellipse;whiteSpace=wrap;html=1;fillColor=#d80073;strokeColor=#A50040;shadow=0;fontColor=#ffffff;" parent="mm0Lusx4NMYDXVdWIbRg-1" vertex="1">
                    <mxGeometry x="523.7246376811595" y="150" width="22.492753623188406" height="25.11111111111111" as="geometry"/>
                </mxCell>
                <mxCell id="nVPXLXxx0watuyFMW0sS-46" style="edgeStyle=none;rounded=0;orthogonalLoop=1;jettySize=auto;html=1;exitX=1;exitY=0;exitDx=0;exitDy=0;endArrow=none;endFill=0;entryX=0.5;entryY=1;entryDx=0;entryDy=0;" parent="mm0Lusx4NMYDXVdWIbRg-1" source="nVPXLXxx0watuyFMW0sS-36" target="nVPXLXxx0watuyFMW0sS-42" edge="1">
                    <mxGeometry x="445" y="150" as="geometry"/>
                </mxCell>
                <mxCell id="nVPXLXxx0watuyFMW0sS-50" style="edgeStyle=none;rounded=0;orthogonalLoop=1;jettySize=auto;html=1;exitX=0.5;exitY=0;exitDx=0;exitDy=0;entryX=0.5;entryY=1;entryDx=0;entryDy=0;endArrow=none;endFill=0;" parent="mm0Lusx4NMYDXVdWIbRg-1" source="nVPXLXxx0watuyFMW0sS-37" target="nVPXLXxx0watuyFMW0sS-42" edge="1">
                    <mxGeometry x="445" y="150" as="geometry"/>
                </mxCell>
                <mxCell id="nVPXLXxx0watuyFMW0sS-58" style="edgeStyle=none;rounded=0;orthogonalLoop=1;jettySize=auto;html=1;exitX=0.5;exitY=0;exitDx=0;exitDy=0;entryX=0.5;entryY=1;entryDx=0;entryDy=0;endArrow=none;endFill=0;" parent="mm0Lusx4NMYDXVdWIbRg-1" source="nVPXLXxx0watuyFMW0sS-39" target="nVPXLXxx0watuyFMW0sS-42" edge="1">
                    <mxGeometry x="445" y="150" as="geometry"/>
                </mxCell>
                <mxCell id="nVPXLXxx0watuyFMW0sS-68" style="edgeStyle=none;rounded=0;orthogonalLoop=1;jettySize=auto;html=1;exitX=0.5;exitY=0;exitDx=0;exitDy=0;entryX=0.5;entryY=1;entryDx=0;entryDy=0;endArrow=none;endFill=0;" parent="mm0Lusx4NMYDXVdWIbRg-1" source="nVPXLXxx0watuyFMW0sS-40" target="nVPXLXxx0watuyFMW0sS-42" edge="1">
                    <mxGeometry x="445" y="150" as="geometry"/>
                </mxCell>
                <mxCell id="nVPXLXxx0watuyFMW0sS-69" style="edgeStyle=none;rounded=0;orthogonalLoop=1;jettySize=auto;html=1;exitX=0;exitY=0;exitDx=0;exitDy=0;entryX=0.5;entryY=1;entryDx=0;entryDy=0;endArrow=none;endFill=0;" parent="mm0Lusx4NMYDXVdWIbRg-1" source="nVPXLXxx0watuyFMW0sS-41" target="nVPXLXxx0watuyFMW0sS-42" edge="1">
                    <mxGeometry x="445" y="150" as="geometry"/>
                </mxCell>
                <mxCell id="nVPXLXxx0watuyFMW0sS-43" value="" style="ellipse;whiteSpace=wrap;html=1;fillColor=#d80073;strokeColor=#A50040;shadow=0;fontColor=#ffffff;" parent="mm0Lusx4NMYDXVdWIbRg-1" vertex="1">
                    <mxGeometry x="591.2028985507246" y="150" width="22.492753623188406" height="25.11111111111111" as="geometry"/>
                </mxCell>
                <mxCell id="nVPXLXxx0watuyFMW0sS-47" style="edgeStyle=none;rounded=0;orthogonalLoop=1;jettySize=auto;html=1;exitX=1;exitY=0;exitDx=0;exitDy=0;entryX=0.5;entryY=1;entryDx=0;entryDy=0;endArrow=none;endFill=0;" parent="mm0Lusx4NMYDXVdWIbRg-1" source="nVPXLXxx0watuyFMW0sS-36" target="nVPXLXxx0watuyFMW0sS-43" edge="1">
                    <mxGeometry x="445" y="150" as="geometry"/>
                </mxCell>
                <mxCell id="nVPXLXxx0watuyFMW0sS-55" style="edgeStyle=none;rounded=0;orthogonalLoop=1;jettySize=auto;html=1;exitX=0.5;exitY=0;exitDx=0;exitDy=0;entryX=0.5;entryY=1;entryDx=0;entryDy=0;endArrow=none;endFill=0;" parent="mm0Lusx4NMYDXVdWIbRg-1" source="nVPXLXxx0watuyFMW0sS-38" target="nVPXLXxx0watuyFMW0sS-43" edge="1">
                    <mxGeometry x="445" y="150" as="geometry"/>
                </mxCell>
                <mxCell id="nVPXLXxx0watuyFMW0sS-67" style="edgeStyle=none;rounded=0;orthogonalLoop=1;jettySize=auto;html=1;exitX=0.5;exitY=0;exitDx=0;exitDy=0;entryX=0.5;entryY=1;entryDx=0;entryDy=0;endArrow=none;endFill=0;" parent="mm0Lusx4NMYDXVdWIbRg-1" source="nVPXLXxx0watuyFMW0sS-40" target="nVPXLXxx0watuyFMW0sS-43" edge="1">
                    <mxGeometry x="445" y="150" as="geometry"/>
                </mxCell>
                <mxCell id="nVPXLXxx0watuyFMW0sS-70" style="edgeStyle=none;rounded=0;orthogonalLoop=1;jettySize=auto;html=1;exitX=0;exitY=0;exitDx=0;exitDy=0;entryX=0.5;entryY=1;entryDx=0;entryDy=0;endArrow=none;endFill=0;" parent="mm0Lusx4NMYDXVdWIbRg-1" source="nVPXLXxx0watuyFMW0sS-41" target="nVPXLXxx0watuyFMW0sS-43" edge="1">
                    <mxGeometry x="445" y="150" as="geometry"/>
                </mxCell>
                <mxCell id="nVPXLXxx0watuyFMW0sS-44" value="" style="ellipse;whiteSpace=wrap;html=1;fillColor=#d80073;strokeColor=#A50040;shadow=0;fontColor=#ffffff;" parent="mm0Lusx4NMYDXVdWIbRg-1" vertex="1">
                    <mxGeometry x="658.6811594202899" y="150" width="22.492753623188406" height="25.11111111111111" as="geometry"/>
                </mxCell>
                <mxCell id="nVPXLXxx0watuyFMW0sS-48" style="edgeStyle=none;rounded=0;orthogonalLoop=1;jettySize=auto;html=1;exitX=1;exitY=0;exitDx=0;exitDy=0;entryX=1;entryY=1;entryDx=0;entryDy=0;endArrow=none;endFill=0;" parent="mm0Lusx4NMYDXVdWIbRg-1" source="nVPXLXxx0watuyFMW0sS-36" target="nVPXLXxx0watuyFMW0sS-44" edge="1">
                    <mxGeometry x="445" y="150" as="geometry"/>
                </mxCell>
                <mxCell id="nVPXLXxx0watuyFMW0sS-52" style="edgeStyle=none;rounded=0;orthogonalLoop=1;jettySize=auto;html=1;exitX=0.5;exitY=0;exitDx=0;exitDy=0;entryX=1;entryY=1;entryDx=0;entryDy=0;endArrow=none;endFill=0;" parent="mm0Lusx4NMYDXVdWIbRg-1" source="nVPXLXxx0watuyFMW0sS-37" target="nVPXLXxx0watuyFMW0sS-44" edge="1">
                    <mxGeometry x="445" y="150" as="geometry"/>
                </mxCell>
                <mxCell id="nVPXLXxx0watuyFMW0sS-61" style="edgeStyle=none;rounded=0;orthogonalLoop=1;jettySize=auto;html=1;exitX=0.5;exitY=0;exitDx=0;exitDy=0;entryX=0.5;entryY=1;entryDx=0;entryDy=0;endArrow=none;endFill=0;" parent="mm0Lusx4NMYDXVdWIbRg-1" source="nVPXLXxx0watuyFMW0sS-39" target="nVPXLXxx0watuyFMW0sS-44" edge="1">
                    <mxGeometry x="445" y="150" as="geometry"/>
                </mxCell>
                <mxCell id="nVPXLXxx0watuyFMW0sS-71" style="edgeStyle=none;rounded=0;orthogonalLoop=1;jettySize=auto;html=1;exitX=0;exitY=0;exitDx=0;exitDy=0;entryX=0.5;entryY=1;entryDx=0;entryDy=0;endArrow=none;endFill=0;" parent="mm0Lusx4NMYDXVdWIbRg-1" source="nVPXLXxx0watuyFMW0sS-41" target="nVPXLXxx0watuyFMW0sS-44" edge="1">
                    <mxGeometry x="445" y="150" as="geometry"/>
                </mxCell>
                <mxCell id="nVPXLXxx0watuyFMW0sS-45" value="" style="ellipse;whiteSpace=wrap;html=1;fillColor=#d80073;strokeColor=#A50040;shadow=0;fontColor=#ffffff;" parent="mm0Lusx4NMYDXVdWIbRg-1" vertex="1">
                    <mxGeometry x="726.1594202898551" y="150" width="22.492753623188406" height="25.11111111111111" as="geometry"/>
                </mxCell>
                <mxCell id="nVPXLXxx0watuyFMW0sS-49" style="edgeStyle=none;rounded=0;orthogonalLoop=1;jettySize=auto;html=1;exitX=1;exitY=0;exitDx=0;exitDy=0;entryX=0.5;entryY=1;entryDx=0;entryDy=0;endArrow=none;endFill=0;" parent="mm0Lusx4NMYDXVdWIbRg-1" source="nVPXLXxx0watuyFMW0sS-36" target="nVPXLXxx0watuyFMW0sS-45" edge="1">
                    <mxGeometry x="445" y="150" as="geometry"/>
                </mxCell>
                <mxCell id="nVPXLXxx0watuyFMW0sS-53" style="edgeStyle=none;rounded=0;orthogonalLoop=1;jettySize=auto;html=1;exitX=1;exitY=0;exitDx=0;exitDy=0;entryX=0.5;entryY=1;entryDx=0;entryDy=0;endArrow=none;endFill=0;" parent="mm0Lusx4NMYDXVdWIbRg-1" source="nVPXLXxx0watuyFMW0sS-37" target="nVPXLXxx0watuyFMW0sS-45" edge="1">
                    <mxGeometry x="445" y="150" as="geometry"/>
                </mxCell>
                <mxCell id="nVPXLXxx0watuyFMW0sS-57" style="edgeStyle=none;rounded=0;orthogonalLoop=1;jettySize=auto;html=1;exitX=0.5;exitY=0;exitDx=0;exitDy=0;entryX=0.5;entryY=1;entryDx=0;entryDy=0;endArrow=none;endFill=0;" parent="mm0Lusx4NMYDXVdWIbRg-1" source="nVPXLXxx0watuyFMW0sS-38" target="nVPXLXxx0watuyFMW0sS-45" edge="1">
                    <mxGeometry x="445" y="150" as="geometry"/>
                </mxCell>
                <mxCell id="nVPXLXxx0watuyFMW0sS-66" style="edgeStyle=none;rounded=0;orthogonalLoop=1;jettySize=auto;html=1;exitX=0.5;exitY=0;exitDx=0;exitDy=0;entryX=0.5;entryY=1;entryDx=0;entryDy=0;endArrow=none;endFill=0;" parent="mm0Lusx4NMYDXVdWIbRg-1" source="nVPXLXxx0watuyFMW0sS-40" target="nVPXLXxx0watuyFMW0sS-45" edge="1">
                    <mxGeometry x="445" y="150" as="geometry"/>
                </mxCell>
                <mxCell id="nVPXLXxx0watuyFMW0sS-72" style="edgeStyle=none;rounded=0;orthogonalLoop=1;jettySize=auto;html=1;exitX=0;exitY=0;exitDx=0;exitDy=0;entryX=0.5;entryY=1;entryDx=0;entryDy=0;endArrow=none;endFill=0;" parent="mm0Lusx4NMYDXVdWIbRg-1" source="nVPXLXxx0watuyFMW0sS-41" target="nVPXLXxx0watuyFMW0sS-45" edge="1">
                    <mxGeometry x="445" y="150" as="geometry"/>
                </mxCell>
                <mxCell id="nVPXLXxx0watuyFMW0sS-73" value="0" style="text;html=1;resizable=0;autosize=1;align=center;verticalAlign=middle;points=[];fillColor=none;strokeColor=none;rounded=0;shadow=0;sketch=1;" parent="mm0Lusx4NMYDXVdWIbRg-1" vertex="1">
                    <mxGeometry x="456.2463768115942" y="313.2222222222222" width="20" height="20" as="geometry"/>
                </mxCell>
                <mxCell id="nVPXLXxx0watuyFMW0sS-74" value="0" style="text;html=1;resizable=0;autosize=1;align=center;verticalAlign=middle;points=[];fillColor=none;strokeColor=none;rounded=0;shadow=0;sketch=1;" parent="mm0Lusx4NMYDXVdWIbRg-1" vertex="1">
                    <mxGeometry x="523.7246376811595" y="313.2222222222222" width="20" height="20" as="geometry"/>
                </mxCell>
                <mxCell id="nVPXLXxx0watuyFMW0sS-75" value="0" style="text;html=1;resizable=0;autosize=1;align=center;verticalAlign=middle;points=[];fillColor=none;strokeColor=none;rounded=0;shadow=0;sketch=1;" parent="mm0Lusx4NMYDXVdWIbRg-1" vertex="1">
                    <mxGeometry x="591.2028985507246" y="313.2222222222222" width="20" height="20" as="geometry"/>
                </mxCell>
                <mxCell id="nVPXLXxx0watuyFMW0sS-76" value="1" style="text;html=1;resizable=0;autosize=1;align=center;verticalAlign=middle;points=[];fillColor=none;strokeColor=none;rounded=0;shadow=0;sketch=1;" parent="mm0Lusx4NMYDXVdWIbRg-1" vertex="1">
                    <mxGeometry x="658.6811594202899" y="313.2222222222222" width="20" height="20" as="geometry"/>
                </mxCell>
                <mxCell id="nVPXLXxx0watuyFMW0sS-77" value="0" style="text;html=1;resizable=0;autosize=1;align=center;verticalAlign=middle;points=[];fillColor=none;strokeColor=none;rounded=0;shadow=0;sketch=1;" parent="mm0Lusx4NMYDXVdWIbRg-1" vertex="1">
                    <mxGeometry x="726.1594202898551" y="313.2222222222222" width="20" height="20" as="geometry"/>
                </mxCell>
                <mxCell id="nVPXLXxx0watuyFMW0sS-78" value="0" style="text;html=1;resizable=0;autosize=1;align=center;verticalAlign=middle;points=[];fillColor=none;strokeColor=none;rounded=0;shadow=0;sketch=1;" parent="mm0Lusx4NMYDXVdWIbRg-1" vertex="1">
                    <mxGeometry x="793.6376811594203" y="313.2222222222222" width="20" height="20" as="geometry"/>
                </mxCell>
                <mxCell id="nVPXLXxx0watuyFMW0sS-79" value="天空" style="text;html=1;resizable=0;autosize=1;align=center;verticalAlign=middle;points=[];fillColor=none;strokeColor=none;rounded=0;" parent="mm0Lusx4NMYDXVdWIbRg-1" vertex="1">
                    <mxGeometry x="445" y="350.8888888888889" width="40" height="20" as="geometry"/>
                </mxCell>
                <mxCell id="nVPXLXxx0watuyFMW0sS-80" value="学习" style="text;html=1;resizable=0;autosize=1;align=center;verticalAlign=middle;points=[];fillColor=none;strokeColor=none;rounded=0;" parent="mm0Lusx4NMYDXVdWIbRg-1" vertex="1">
                    <mxGeometry x="512.4782608695652" y="350.8888888888889" width="40" height="20" as="geometry"/>
                </mxCell>
                <mxCell id="nVPXLXxx0watuyFMW0sS-81" value="....." style="text;html=1;resizable=0;autosize=1;align=center;verticalAlign=middle;points=[];fillColor=none;strokeColor=none;rounded=0;" parent="mm0Lusx4NMYDXVdWIbRg-1" vertex="1">
                    <mxGeometry x="585.5797101449275" y="350.8888888888889" width="30" height="20" as="geometry"/>
                </mxCell>
                <mxCell id="nVPXLXxx0watuyFMW0sS-82" value="....." style="text;html=1;resizable=0;autosize=1;align=center;verticalAlign=middle;points=[];fillColor=none;strokeColor=none;rounded=0;" parent="mm0Lusx4NMYDXVdWIbRg-1" vertex="1">
                    <mxGeometry x="585.5797101449275" y="275.55555555555554" width="30" height="20" as="geometry"/>
                </mxCell>
                <mxCell id="nVPXLXxx0watuyFMW0sS-83" value="图书馆" style="text;html=1;resizable=0;autosize=1;align=center;verticalAlign=middle;points=[];fillColor=none;strokeColor=none;rounded=0;" parent="mm0Lusx4NMYDXVdWIbRg-1" vertex="1">
                    <mxGeometry x="641.8115942028986" y="350.8888888888889" width="50" height="20" as="geometry"/>
                </mxCell>
                <mxCell id="nVPXLXxx0watuyFMW0sS-84" value="达" style="text;html=1;resizable=0;autosize=1;align=center;verticalAlign=middle;points=[];fillColor=none;strokeColor=none;rounded=0;" parent="mm0Lusx4NMYDXVdWIbRg-1" vertex="1">
                    <mxGeometry x="720.536231884058" y="350.8888888888889" width="30" height="20" as="geometry"/>
                </mxCell>
                <mxCell id="nVPXLXxx0watuyFMW0sS-85" value="占座" style="text;html=1;resizable=0;autosize=1;align=center;verticalAlign=middle;points=[];fillColor=none;strokeColor=none;rounded=0;" parent="mm0Lusx4NMYDXVdWIbRg-1" vertex="1">
                    <mxGeometry x="788.0144927536232" y="350.8888888888889" width="40" height="20" as="geometry"/>
                </mxCell>
                <mxCell id="nVPXLXxx0watuyFMW0sS-87" value="0.3" style="text;html=1;resizable=0;autosize=1;align=center;verticalAlign=middle;points=[];fillColor=none;strokeColor=none;rounded=0;shadow=0;sketch=1;labelBackgroundColor=#6BBFFF;" parent="mm0Lusx4NMYDXVdWIbRg-1" vertex="1">
                    <mxGeometry x="521.2146376811595" y="120.00222222222214" width="30" height="20" as="geometry"/>
                </mxCell>
                <mxCell id="nVPXLXxx0watuyFMW0sS-88" value="-0.6" style="text;html=1;resizable=0;autosize=1;align=center;verticalAlign=middle;points=[];fillColor=none;strokeColor=none;rounded=0;shadow=0;sketch=1;labelBackgroundColor=#6BBFFF;" parent="mm0Lusx4NMYDXVdWIbRg-1" vertex="1">
                    <mxGeometry x="583.0046376811595" y="120.00222222222214" width="40" height="20" as="geometry"/>
                </mxCell>
                <mxCell id="nVPXLXxx0watuyFMW0sS-89" value="1.3" style="text;html=1;resizable=0;autosize=1;align=center;verticalAlign=middle;points=[];fillColor=none;strokeColor=none;rounded=0;shadow=0;sketch=1;labelBackgroundColor=#6BBFFF;" parent="mm0Lusx4NMYDXVdWIbRg-1" vertex="1">
                    <mxGeometry x="654.9246376811594" y="120.00222222222214" width="30" height="20" as="geometry"/>
                </mxCell>
                <mxCell id="nVPXLXxx0watuyFMW0sS-90" value="0.2" style="text;html=1;resizable=0;autosize=1;align=center;verticalAlign=middle;points=[];fillColor=none;strokeColor=none;rounded=0;shadow=0;sketch=1;labelBackgroundColor=#6BBFFF;" parent="mm0Lusx4NMYDXVdWIbRg-1" vertex="1">
                    <mxGeometry x="718.6546376811594" y="120.00222222222214" width="30" height="20" as="geometry"/>
                </mxCell>
            </root>
        </mxGraphModel>
    </diagram>
    <diagram id="137RqeO9-0kFn61jxPJR" name="第 3 页">
        <mxGraphModel dx="881" dy="813" grid="1" gridSize="10" guides="1" tooltips="1" connect="1" arrows="1" fold="1" page="1" pageScale="1" pageWidth="827" pageHeight="1169" math="0" shadow="0">
            <root>
                <mxCell id="qePHnNZJ6gp4Jl6GY8dS-0"/>
                <mxCell id="qePHnNZJ6gp4Jl6GY8dS-1" parent="qePHnNZJ6gp4Jl6GY8dS-0"/>
                <mxCell id="O51pbDAv2_Nsd26oS4-O-0" style="edgeStyle=none;rounded=0;orthogonalLoop=1;jettySize=auto;html=1;exitX=0.5;exitY=0;exitDx=0;exitDy=0;entryX=0.5;entryY=1;entryDx=0;entryDy=0;endArrow=none;endFill=0;" parent="qePHnNZJ6gp4Jl6GY8dS-1" source="O51pbDAv2_Nsd26oS4-O-2" target="O51pbDAv2_Nsd26oS4-O-5" edge="1">
                    <mxGeometry relative="1" as="geometry"/>
                </mxCell>
                <mxCell id="O51pbDAv2_Nsd26oS4-O-1" style="edgeStyle=none;rounded=0;orthogonalLoop=1;jettySize=auto;html=1;exitX=0.5;exitY=0;exitDx=0;exitDy=0;entryX=0.5;entryY=1;entryDx=0;entryDy=0;endArrow=none;endFill=0;" parent="qePHnNZJ6gp4Jl6GY8dS-1" source="O51pbDAv2_Nsd26oS4-O-2" target="O51pbDAv2_Nsd26oS4-O-16" edge="1">
                    <mxGeometry relative="1" as="geometry"/>
                </mxCell>
                <mxCell id="O51pbDAv2_Nsd26oS4-O-2" value="" style="whiteSpace=wrap;html=1;fillColor=#d5e8d4;strokeColor=#82b366;" parent="qePHnNZJ6gp4Jl6GY8dS-1" vertex="1">
                    <mxGeometry x="120" y="360" width="40" height="20" as="geometry"/>
                </mxCell>
                <mxCell id="O51pbDAv2_Nsd26oS4-O-3" style="edgeStyle=none;rounded=0;orthogonalLoop=1;jettySize=auto;html=1;exitX=0.5;exitY=1;exitDx=0;exitDy=0;entryX=0.5;entryY=0;entryDx=0;entryDy=0;endArrow=none;endFill=0;" parent="qePHnNZJ6gp4Jl6GY8dS-1" source="O51pbDAv2_Nsd26oS4-O-5" target="O51pbDAv2_Nsd26oS4-O-6" edge="1">
                    <mxGeometry relative="1" as="geometry"/>
                </mxCell>
                <mxCell id="O51pbDAv2_Nsd26oS4-O-4" style="edgeStyle=none;rounded=0;orthogonalLoop=1;jettySize=auto;html=1;exitX=0.5;exitY=0;exitDx=0;exitDy=0;entryX=0.5;entryY=1;entryDx=0;entryDy=0;endArrow=none;endFill=0;" parent="qePHnNZJ6gp4Jl6GY8dS-1" source="O51pbDAv2_Nsd26oS4-O-5" target="O51pbDAv2_Nsd26oS4-O-29" edge="1">
                    <mxGeometry relative="1" as="geometry"/>
                </mxCell>
                <mxCell id="O51pbDAv2_Nsd26oS4-O-5" value="" style="ellipse;whiteSpace=wrap;html=1;fillColor=#f8cecc;strokeColor=#b85450;shadow=0;" parent="qePHnNZJ6gp4Jl6GY8dS-1" vertex="1">
                    <mxGeometry x="50" y="260" width="20" height="20" as="geometry"/>
                </mxCell>
                <mxCell id="O51pbDAv2_Nsd26oS4-O-6" value="" style="whiteSpace=wrap;html=1;fillColor=#d5e8d4;strokeColor=#82b366;" parent="qePHnNZJ6gp4Jl6GY8dS-1" vertex="1">
                    <mxGeometry x="200" y="360" width="40" height="20" as="geometry"/>
                </mxCell>
                <mxCell id="O51pbDAv2_Nsd26oS4-O-7" style="edgeStyle=none;rounded=0;orthogonalLoop=1;jettySize=auto;html=1;exitX=0.5;exitY=0;exitDx=0;exitDy=0;entryX=0.5;entryY=1;entryDx=0;entryDy=0;endArrow=none;endFill=0;" parent="qePHnNZJ6gp4Jl6GY8dS-1" source="O51pbDAv2_Nsd26oS4-O-13" target="O51pbDAv2_Nsd26oS4-O-28" edge="1">
                    <mxGeometry relative="1" as="geometry"/>
                </mxCell>
                <mxCell id="O51pbDAv2_Nsd26oS4-O-8" style="edgeStyle=none;rounded=0;orthogonalLoop=1;jettySize=auto;html=1;exitX=0.5;exitY=0;exitDx=0;exitDy=0;entryX=0.5;entryY=1;entryDx=0;entryDy=0;endArrow=none;endFill=0;" parent="qePHnNZJ6gp4Jl6GY8dS-1" source="O51pbDAv2_Nsd26oS4-O-13" target="O51pbDAv2_Nsd26oS4-O-24" edge="1">
                    <mxGeometry relative="1" as="geometry"/>
                </mxCell>
                <mxCell id="O51pbDAv2_Nsd26oS4-O-9" style="edgeStyle=none;rounded=0;orthogonalLoop=1;jettySize=auto;html=1;exitX=0.5;exitY=0;exitDx=0;exitDy=0;entryX=0.5;entryY=1;entryDx=0;entryDy=0;endArrow=none;endFill=0;" parent="qePHnNZJ6gp4Jl6GY8dS-1" source="O51pbDAv2_Nsd26oS4-O-13" target="O51pbDAv2_Nsd26oS4-O-20" edge="1">
                    <mxGeometry relative="1" as="geometry"/>
                </mxCell>
                <mxCell id="O51pbDAv2_Nsd26oS4-O-10" style="edgeStyle=none;rounded=0;orthogonalLoop=1;jettySize=auto;html=1;exitX=0.5;exitY=0;exitDx=0;exitDy=0;endArrow=none;endFill=0;" parent="qePHnNZJ6gp4Jl6GY8dS-1" source="O51pbDAv2_Nsd26oS4-O-13" edge="1">
                    <mxGeometry relative="1" as="geometry">
                        <mxPoint x="140" y="280" as="targetPoint"/>
                    </mxGeometry>
                </mxCell>
                <mxCell id="O51pbDAv2_Nsd26oS4-O-11" style="edgeStyle=none;rounded=0;orthogonalLoop=1;jettySize=auto;html=1;exitX=0.25;exitY=0;exitDx=0;exitDy=0;entryX=0.5;entryY=1;entryDx=0;entryDy=0;endArrow=none;endFill=0;" parent="qePHnNZJ6gp4Jl6GY8dS-1" source="O51pbDAv2_Nsd26oS4-O-13" target="O51pbDAv2_Nsd26oS4-O-5" edge="1">
                    <mxGeometry relative="1" as="geometry"/>
                </mxCell>
                <mxCell id="O51pbDAv2_Nsd26oS4-O-12" style="edgeStyle=none;rounded=0;orthogonalLoop=1;jettySize=auto;html=1;endArrow=none;endFill=0;strokeWidth=5;startArrow=block;startFill=0;" parent="qePHnNZJ6gp4Jl6GY8dS-1" edge="1">
                    <mxGeometry relative="1" as="geometry">
                        <mxPoint x="400" y="172.56" as="targetPoint"/>
                        <mxPoint x="270" y="173" as="sourcePoint"/>
                    </mxGeometry>
                </mxCell>
                <mxCell id="O51pbDAv2_Nsd26oS4-O-13" value="" style="whiteSpace=wrap;html=1;fillColor=#dae8fc;strokeColor=#6c8ebf;" parent="qePHnNZJ6gp4Jl6GY8dS-1" vertex="1">
                    <mxGeometry x="280" y="360" width="40" height="20" as="geometry"/>
                </mxCell>
                <mxCell id="O51pbDAv2_Nsd26oS4-O-14" style="edgeStyle=none;rounded=0;orthogonalLoop=1;jettySize=auto;html=1;exitX=0.5;exitY=1;exitDx=0;exitDy=0;endArrow=none;endFill=0;" parent="qePHnNZJ6gp4Jl6GY8dS-1" source="O51pbDAv2_Nsd26oS4-O-16" edge="1">
                    <mxGeometry relative="1" as="geometry">
                        <mxPoint x="220" y="360" as="targetPoint"/>
                    </mxGeometry>
                </mxCell>
                <mxCell id="O51pbDAv2_Nsd26oS4-O-15" style="edgeStyle=none;rounded=0;orthogonalLoop=1;jettySize=auto;html=1;exitX=0.5;exitY=0;exitDx=0;exitDy=0;entryX=0.5;entryY=1;entryDx=0;entryDy=0;endArrow=none;endFill=0;" parent="qePHnNZJ6gp4Jl6GY8dS-1" source="O51pbDAv2_Nsd26oS4-O-16" target="O51pbDAv2_Nsd26oS4-O-29" edge="1">
                    <mxGeometry relative="1" as="geometry"/>
                </mxCell>
                <mxCell id="O51pbDAv2_Nsd26oS4-O-16" value="" style="ellipse;whiteSpace=wrap;html=1;fillColor=#f8cecc;strokeColor=#b85450;shadow=0;" parent="qePHnNZJ6gp4Jl6GY8dS-1" vertex="1">
                    <mxGeometry x="130" y="260" width="20" height="20" as="geometry"/>
                </mxCell>
                <mxCell id="O51pbDAv2_Nsd26oS4-O-17" style="edgeStyle=none;rounded=0;orthogonalLoop=1;jettySize=auto;html=1;exitX=0.5;exitY=1;exitDx=0;exitDy=0;entryX=0.5;entryY=0;entryDx=0;entryDy=0;endArrow=none;endFill=0;" parent="qePHnNZJ6gp4Jl6GY8dS-1" source="O51pbDAv2_Nsd26oS4-O-20" target="O51pbDAv2_Nsd26oS4-O-2" edge="1">
                    <mxGeometry relative="1" as="geometry"/>
                </mxCell>
                <mxCell id="O51pbDAv2_Nsd26oS4-O-18" style="edgeStyle=none;rounded=0;orthogonalLoop=1;jettySize=auto;html=1;exitX=0.5;exitY=1;exitDx=0;exitDy=0;endArrow=none;endFill=0;" parent="qePHnNZJ6gp4Jl6GY8dS-1" source="O51pbDAv2_Nsd26oS4-O-20" edge="1">
                    <mxGeometry relative="1" as="geometry">
                        <mxPoint x="220" y="360" as="targetPoint"/>
                    </mxGeometry>
                </mxCell>
                <mxCell id="O51pbDAv2_Nsd26oS4-O-19" style="edgeStyle=none;rounded=0;orthogonalLoop=1;jettySize=auto;html=1;exitX=0.5;exitY=0;exitDx=0;exitDy=0;entryX=0.5;entryY=1;entryDx=0;entryDy=0;endArrow=none;endFill=0;" parent="qePHnNZJ6gp4Jl6GY8dS-1" source="O51pbDAv2_Nsd26oS4-O-20" target="O51pbDAv2_Nsd26oS4-O-29" edge="1">
                    <mxGeometry relative="1" as="geometry"/>
                </mxCell>
                <mxCell id="O51pbDAv2_Nsd26oS4-O-20" value="" style="ellipse;whiteSpace=wrap;html=1;fillColor=#f8cecc;strokeColor=#b85450;shadow=0;" parent="qePHnNZJ6gp4Jl6GY8dS-1" vertex="1">
                    <mxGeometry x="210" y="260" width="20" height="20" as="geometry"/>
                </mxCell>
                <mxCell id="O51pbDAv2_Nsd26oS4-O-21" style="edgeStyle=none;rounded=0;orthogonalLoop=1;jettySize=auto;html=1;exitX=0.5;exitY=1;exitDx=0;exitDy=0;endArrow=none;endFill=0;" parent="qePHnNZJ6gp4Jl6GY8dS-1" source="O51pbDAv2_Nsd26oS4-O-24" edge="1">
                    <mxGeometry relative="1" as="geometry">
                        <mxPoint x="140" y="360" as="targetPoint"/>
                    </mxGeometry>
                </mxCell>
                <mxCell id="O51pbDAv2_Nsd26oS4-O-22" style="edgeStyle=none;rounded=0;orthogonalLoop=1;jettySize=auto;html=1;exitX=0.5;exitY=1;exitDx=0;exitDy=0;endArrow=none;endFill=0;" parent="qePHnNZJ6gp4Jl6GY8dS-1" source="O51pbDAv2_Nsd26oS4-O-24" edge="1">
                    <mxGeometry relative="1" as="geometry">
                        <mxPoint x="220" y="360" as="targetPoint"/>
                    </mxGeometry>
                </mxCell>
                <mxCell id="O51pbDAv2_Nsd26oS4-O-23" style="edgeStyle=none;rounded=0;orthogonalLoop=1;jettySize=auto;html=1;exitX=0.5;exitY=0;exitDx=0;exitDy=0;entryX=0.5;entryY=1;entryDx=0;entryDy=0;endArrow=none;endFill=0;" parent="qePHnNZJ6gp4Jl6GY8dS-1" source="O51pbDAv2_Nsd26oS4-O-24" target="O51pbDAv2_Nsd26oS4-O-29" edge="1">
                    <mxGeometry relative="1" as="geometry"/>
                </mxCell>
                <mxCell id="O51pbDAv2_Nsd26oS4-O-24" value="" style="ellipse;whiteSpace=wrap;html=1;fillColor=#f8cecc;strokeColor=#b85450;shadow=0;" parent="qePHnNZJ6gp4Jl6GY8dS-1" vertex="1">
                    <mxGeometry x="290" y="260" width="20" height="20" as="geometry"/>
                </mxCell>
                <mxCell id="O51pbDAv2_Nsd26oS4-O-25" style="edgeStyle=none;rounded=0;orthogonalLoop=1;jettySize=auto;html=1;exitX=0.5;exitY=1;exitDx=0;exitDy=0;entryX=0.5;entryY=0;entryDx=0;entryDy=0;endArrow=none;endFill=0;" parent="qePHnNZJ6gp4Jl6GY8dS-1" source="O51pbDAv2_Nsd26oS4-O-28" target="O51pbDAv2_Nsd26oS4-O-2" edge="1">
                    <mxGeometry relative="1" as="geometry"/>
                </mxCell>
                <mxCell id="O51pbDAv2_Nsd26oS4-O-26" style="edgeStyle=none;rounded=0;orthogonalLoop=1;jettySize=auto;html=1;exitX=0.5;exitY=1;exitDx=0;exitDy=0;endArrow=none;endFill=0;" parent="qePHnNZJ6gp4Jl6GY8dS-1" source="O51pbDAv2_Nsd26oS4-O-28" edge="1">
                    <mxGeometry relative="1" as="geometry">
                        <mxPoint x="220" y="360" as="targetPoint"/>
                    </mxGeometry>
                </mxCell>
                <mxCell id="O51pbDAv2_Nsd26oS4-O-27" style="edgeStyle=none;rounded=0;orthogonalLoop=1;jettySize=auto;html=1;exitX=0.5;exitY=0;exitDx=0;exitDy=0;entryX=0.5;entryY=1;entryDx=0;entryDy=0;endArrow=none;endFill=0;" parent="qePHnNZJ6gp4Jl6GY8dS-1" source="O51pbDAv2_Nsd26oS4-O-28" target="O51pbDAv2_Nsd26oS4-O-29" edge="1">
                    <mxGeometry relative="1" as="geometry"/>
                </mxCell>
                <mxCell id="O51pbDAv2_Nsd26oS4-O-28" value="" style="ellipse;whiteSpace=wrap;html=1;fillColor=#f8cecc;strokeColor=#b85450;shadow=0;" parent="qePHnNZJ6gp4Jl6GY8dS-1" vertex="1">
                    <mxGeometry x="370" y="260" width="20" height="20" as="geometry"/>
                </mxCell>
                <mxCell id="O51pbDAv2_Nsd26oS4-O-29" value="" style="whiteSpace=wrap;html=1;fillColor=#d80073;strokeColor=#A50040;fontColor=#ffffff;" parent="qePHnNZJ6gp4Jl6GY8dS-1" vertex="1">
                    <mxGeometry x="200" y="160" width="40" height="20" as="geometry"/>
                </mxCell>
                <mxCell id="O51pbDAv2_Nsd26oS4-O-30" value="我们" style="text;html=1;resizable=0;autosize=1;align=center;verticalAlign=middle;points=[];fillColor=none;strokeColor=none;rounded=0;" parent="qePHnNZJ6gp4Jl6GY8dS-1" vertex="1">
                    <mxGeometry x="30" y="390" width="40" height="20" as="geometry"/>
                </mxCell>
                <mxCell id="O51pbDAv2_Nsd26oS4-O-31" value="一起" style="text;html=1;resizable=0;autosize=1;align=center;verticalAlign=middle;points=[];fillColor=none;strokeColor=none;rounded=0;" parent="qePHnNZJ6gp4Jl6GY8dS-1" vertex="1">
                    <mxGeometry x="120" y="390" width="40" height="20" as="geometry"/>
                </mxCell>
                <mxCell id="O51pbDAv2_Nsd26oS4-O-32" value="去" style="text;html=1;resizable=0;autosize=1;align=center;verticalAlign=middle;points=[];fillColor=none;strokeColor=none;rounded=0;" parent="qePHnNZJ6gp4Jl6GY8dS-1" vertex="1">
                    <mxGeometry x="205" y="390" width="30" height="20" as="geometry"/>
                </mxCell>
                <mxCell id="O51pbDAv2_Nsd26oS4-O-33" value="图书馆" style="text;html=1;resizable=0;autosize=1;align=center;verticalAlign=middle;points=[];fillColor=none;strokeColor=none;rounded=0;" parent="qePHnNZJ6gp4Jl6GY8dS-1" vertex="1">
                    <mxGeometry x="275" y="390" width="50" height="20" as="geometry"/>
                </mxCell>
                <mxCell id="O51pbDAv2_Nsd26oS4-O-34" value="学习" style="text;html=1;resizable=0;autosize=1;align=center;verticalAlign=middle;points=[];fillColor=none;strokeColor=none;rounded=0;" parent="qePHnNZJ6gp4Jl6GY8dS-1" vertex="1">
                    <mxGeometry x="360" y="390" width="40" height="20" as="geometry"/>
                </mxCell>
                <mxCell id="O51pbDAv2_Nsd26oS4-O-35" value="吧" style="text;html=1;resizable=0;autosize=1;align=center;verticalAlign=middle;points=[];fillColor=none;strokeColor=none;rounded=0;" parent="qePHnNZJ6gp4Jl6GY8dS-1" vertex="1">
                    <mxGeometry x="445" y="390" width="30" height="20" as="geometry"/>
                </mxCell>
                <mxCell id="O51pbDAv2_Nsd26oS4-O-36" value="学习" style="text;html=1;resizable=0;autosize=1;align=center;verticalAlign=middle;points=[];fillColor=none;strokeColor=none;rounded=0;" parent="qePHnNZJ6gp4Jl6GY8dS-1" vertex="1">
                    <mxGeometry x="200" y="130" width="40" height="20" as="geometry"/>
                </mxCell>
                <mxCell id="O51pbDAv2_Nsd26oS4-O-37" value="" style="ellipse;whiteSpace=wrap;html=1;fillColor=#1ba1e2;strokeColor=#006EAF;shadow=0;fontColor=#ffffff;" parent="qePHnNZJ6gp4Jl6GY8dS-1" vertex="1">
                    <mxGeometry x="411.2463768115942" y="160" width="22.492753623188406" height="25.11111111111111" as="geometry"/>
                </mxCell>
                <mxCell id="O51pbDAv2_Nsd26oS4-O-39" value="" style="ellipse;whiteSpace=wrap;html=1;fillColor=#d80073;strokeColor=#A50040;shadow=0;fontColor=#ffffff;" parent="qePHnNZJ6gp4Jl6GY8dS-1" vertex="1">
                    <mxGeometry x="478.7246376811595" y="160" width="22.492753623188406" height="25.11111111111111" as="geometry"/>
                </mxCell>
                <mxCell id="O51pbDAv2_Nsd26oS4-O-42" value="" style="ellipse;whiteSpace=wrap;html=1;fillColor=#1ba1e2;strokeColor=#006EAF;shadow=0;fontColor=#ffffff;" parent="qePHnNZJ6gp4Jl6GY8dS-1" vertex="1">
                    <mxGeometry x="546.2028985507246" y="160" width="22.492753623188406" height="25.11111111111111" as="geometry"/>
                </mxCell>
                <mxCell id="O51pbDAv2_Nsd26oS4-O-45" value="" style="ellipse;whiteSpace=wrap;html=1;fillColor=#1ba1e2;strokeColor=#006EAF;shadow=0;fontColor=#ffffff;" parent="qePHnNZJ6gp4Jl6GY8dS-1" vertex="1">
                    <mxGeometry x="613.6811594202899" y="160" width="22.492753623188406" height="25.11111111111111" as="geometry"/>
                </mxCell>
                <mxCell id="O51pbDAv2_Nsd26oS4-O-47" value="" style="ellipse;whiteSpace=wrap;html=1;fillColor=#1ba1e2;strokeColor=#006EAF;shadow=0;fontColor=#ffffff;" parent="qePHnNZJ6gp4Jl6GY8dS-1" vertex="1">
                    <mxGeometry x="681.1594202898551" y="160" width="22.492753623188406" height="25.11111111111111" as="geometry"/>
                </mxCell>
                <mxCell id="O51pbDAv2_Nsd26oS4-O-48" value="" style="ellipse;whiteSpace=wrap;html=1;fillColor=#1ba1e2;strokeColor=#006EAF;shadow=0;fontColor=#ffffff;" parent="qePHnNZJ6gp4Jl6GY8dS-1" vertex="1">
                    <mxGeometry x="748.6376811594203" y="160" width="22.492753623188406" height="25.11111111111111" as="geometry"/>
                </mxCell>
                <mxCell id="O51pbDAv2_Nsd26oS4-O-71" value="0.1" style="text;html=1;resizable=0;autosize=1;align=center;verticalAlign=middle;points=[];fillColor=none;strokeColor=none;rounded=0;shadow=0;sketch=1;" parent="qePHnNZJ6gp4Jl6GY8dS-1" vertex="1">
                    <mxGeometry x="406.2463768115942" y="210.22222222222217" width="30" height="20" as="geometry"/>
                </mxCell>
                <mxCell id="O51pbDAv2_Nsd26oS4-O-72" value="0.4" style="text;html=1;resizable=0;autosize=1;align=center;verticalAlign=middle;points=[];fillColor=none;strokeColor=none;rounded=0;shadow=0;sketch=1;" parent="qePHnNZJ6gp4Jl6GY8dS-1" vertex="1">
                    <mxGeometry x="473.7246376811595" y="210.22222222222217" width="30" height="20" as="geometry"/>
                </mxCell>
                <mxCell id="O51pbDAv2_Nsd26oS4-O-73" value="0" style="text;html=1;resizable=0;autosize=1;align=center;verticalAlign=middle;points=[];fillColor=none;strokeColor=none;rounded=0;shadow=0;sketch=1;" parent="qePHnNZJ6gp4Jl6GY8dS-1" vertex="1">
                    <mxGeometry x="546.2028985507246" y="210.22222222222217" width="20" height="20" as="geometry"/>
                </mxCell>
                <mxCell id="O51pbDAv2_Nsd26oS4-O-74" value="0.13" style="text;html=1;resizable=0;autosize=1;align=center;verticalAlign=middle;points=[];fillColor=none;strokeColor=none;rounded=0;shadow=0;sketch=1;" parent="qePHnNZJ6gp4Jl6GY8dS-1" vertex="1">
                    <mxGeometry x="603.6811594202899" y="210.22222222222217" width="40" height="20" as="geometry"/>
                </mxCell>
                <mxCell id="O51pbDAv2_Nsd26oS4-O-75" value="0.2" style="text;html=1;resizable=0;autosize=1;align=center;verticalAlign=middle;points=[];fillColor=none;strokeColor=none;rounded=0;shadow=0;sketch=1;" parent="qePHnNZJ6gp4Jl6GY8dS-1" vertex="1">
                    <mxGeometry x="676.1594202898551" y="210.22222222222217" width="30" height="20" as="geometry"/>
                </mxCell>
                <mxCell id="O51pbDAv2_Nsd26oS4-O-76" value="0.21" style="text;html=1;resizable=0;autosize=1;align=center;verticalAlign=middle;points=[];fillColor=none;strokeColor=none;rounded=0;shadow=0;sketch=1;" parent="qePHnNZJ6gp4Jl6GY8dS-1" vertex="1">
                    <mxGeometry x="738.6376811594203" y="210.22222222222217" width="40" height="20" as="geometry"/>
                </mxCell>
                <mxCell id="O51pbDAv2_Nsd26oS4-O-77" value="天空" style="text;html=1;resizable=0;autosize=1;align=center;verticalAlign=middle;points=[];fillColor=none;strokeColor=none;rounded=0;" parent="qePHnNZJ6gp4Jl6GY8dS-1" vertex="1">
                    <mxGeometry x="400" y="247.8888888888889" width="40" height="20" as="geometry"/>
                </mxCell>
                <mxCell id="O51pbDAv2_Nsd26oS4-O-78" value="学习" style="text;html=1;resizable=0;autosize=1;align=center;verticalAlign=middle;points=[];fillColor=none;strokeColor=none;rounded=0;" parent="qePHnNZJ6gp4Jl6GY8dS-1" vertex="1">
                    <mxGeometry x="467.47826086956525" y="247.8888888888889" width="40" height="20" as="geometry"/>
                </mxCell>
                <mxCell id="O51pbDAv2_Nsd26oS4-O-79" value="....." style="text;html=1;resizable=0;autosize=1;align=center;verticalAlign=middle;points=[];fillColor=none;strokeColor=none;rounded=0;" parent="qePHnNZJ6gp4Jl6GY8dS-1" vertex="1">
                    <mxGeometry x="540.5797101449275" y="247.8888888888889" width="30" height="20" as="geometry"/>
                </mxCell>
                <mxCell id="O51pbDAv2_Nsd26oS4-O-80" value="....." style="text;html=1;resizable=0;autosize=1;align=center;verticalAlign=middle;points=[];fillColor=none;strokeColor=none;rounded=0;" parent="qePHnNZJ6gp4Jl6GY8dS-1" vertex="1">
                    <mxGeometry x="540.5797101449275" y="172.55555555555554" width="30" height="20" as="geometry"/>
                </mxCell>
                <mxCell id="O51pbDAv2_Nsd26oS4-O-81" value="图书馆" style="text;html=1;resizable=0;autosize=1;align=center;verticalAlign=middle;points=[];fillColor=none;strokeColor=none;rounded=0;" parent="qePHnNZJ6gp4Jl6GY8dS-1" vertex="1">
                    <mxGeometry x="596.8115942028986" y="247.8888888888889" width="50" height="20" as="geometry"/>
                </mxCell>
                <mxCell id="O51pbDAv2_Nsd26oS4-O-82" value="达" style="text;html=1;resizable=0;autosize=1;align=center;verticalAlign=middle;points=[];fillColor=none;strokeColor=none;rounded=0;" parent="qePHnNZJ6gp4Jl6GY8dS-1" vertex="1">
                    <mxGeometry x="675.536231884058" y="247.8888888888889" width="30" height="20" as="geometry"/>
                </mxCell>
                <mxCell id="O51pbDAv2_Nsd26oS4-O-83" value="占座" style="text;html=1;resizable=0;autosize=1;align=center;verticalAlign=middle;points=[];fillColor=none;strokeColor=none;rounded=0;" parent="qePHnNZJ6gp4Jl6GY8dS-1" vertex="1">
                    <mxGeometry x="743.0144927536232" y="247.8888888888889" width="40" height="20" as="geometry"/>
                </mxCell>
            </root>
        </mxGraphModel>
    </diagram>
    <diagram id="6K5zrvxteY-HXUHF3fN_" name="第 4 页">
        <mxGraphModel dx="881" dy="813" grid="1" gridSize="10" guides="1" tooltips="1" connect="1" arrows="1" fold="1" page="1" pageScale="1" pageWidth="827" pageHeight="1169" math="0" shadow="0">
            <root>
                <mxCell id="crylg8JnlNkCyJXfwCK_-0"/>
                <mxCell id="crylg8JnlNkCyJXfwCK_-1" parent="crylg8JnlNkCyJXfwCK_-0"/>
                <mxCell id="7MWBgJ4iMsJyTvNMB5a--0" value="" style="ellipse;whiteSpace=wrap;html=1;fillColor=#1ba1e2;strokeColor=#006EAF;shadow=0;fontColor=#ffffff;" parent="crylg8JnlNkCyJXfwCK_-1" vertex="1">
                    <mxGeometry x="141.2463768115942" y="383" width="22.492753623188406" height="25.11111111111111" as="geometry"/>
                </mxCell>
                <mxCell id="7MWBgJ4iMsJyTvNMB5a--2" value="" style="ellipse;whiteSpace=wrap;html=1;fillColor=#1ba1e2;strokeColor=#006EAF;shadow=0;fontColor=#ffffff;" parent="crylg8JnlNkCyJXfwCK_-1" vertex="1">
                    <mxGeometry x="208.7246376811595" y="383" width="22.492753623188406" height="25.11111111111111" as="geometry"/>
                </mxCell>
                <mxCell id="7MWBgJ4iMsJyTvNMB5a--5" value="" style="ellipse;whiteSpace=wrap;html=1;fillColor=#1ba1e2;strokeColor=#006EAF;shadow=0;fontColor=#ffffff;" parent="crylg8JnlNkCyJXfwCK_-1" vertex="1">
                    <mxGeometry x="276.2028985507246" y="383" width="22.492753623188406" height="25.11111111111111" as="geometry"/>
                </mxCell>
                <mxCell id="7MWBgJ4iMsJyTvNMB5a--51" style="edgeStyle=none;rounded=0;orthogonalLoop=1;jettySize=auto;html=1;exitX=0.5;exitY=0;exitDx=0;exitDy=0;entryX=1;entryY=1;entryDx=0;entryDy=0;startArrow=none;startFill=0;endArrow=none;endFill=0;strokeWidth=1;" parent="crylg8JnlNkCyJXfwCK_-1" source="7MWBgJ4iMsJyTvNMB5a--8" target="7MWBgJ4iMsJyTvNMB5a--12" edge="1">
                    <mxGeometry relative="1" as="geometry"/>
                </mxCell>
                <mxCell id="7MWBgJ4iMsJyTvNMB5a--52" style="edgeStyle=none;rounded=0;orthogonalLoop=1;jettySize=auto;html=1;exitX=0.5;exitY=0;exitDx=0;exitDy=0;entryX=0.5;entryY=1;entryDx=0;entryDy=0;startArrow=none;startFill=0;endArrow=none;endFill=0;strokeWidth=1;" parent="crylg8JnlNkCyJXfwCK_-1" source="7MWBgJ4iMsJyTvNMB5a--8" target="7MWBgJ4iMsJyTvNMB5a--18" edge="1">
                    <mxGeometry relative="1" as="geometry"/>
                </mxCell>
                <mxCell id="7MWBgJ4iMsJyTvNMB5a--53" style="edgeStyle=none;rounded=0;orthogonalLoop=1;jettySize=auto;html=1;exitX=0.5;exitY=0;exitDx=0;exitDy=0;entryX=0.5;entryY=1;entryDx=0;entryDy=0;startArrow=none;startFill=0;endArrow=none;endFill=0;strokeWidth=1;" parent="crylg8JnlNkCyJXfwCK_-1" source="7MWBgJ4iMsJyTvNMB5a--8" target="7MWBgJ4iMsJyTvNMB5a--23" edge="1">
                    <mxGeometry relative="1" as="geometry"/>
                </mxCell>
                <mxCell id="7MWBgJ4iMsJyTvNMB5a--54" style="edgeStyle=none;rounded=0;orthogonalLoop=1;jettySize=auto;html=1;exitX=0.5;exitY=0;exitDx=0;exitDy=0;entryX=0;entryY=1;entryDx=0;entryDy=0;startArrow=none;startFill=0;endArrow=none;endFill=0;strokeWidth=1;" parent="crylg8JnlNkCyJXfwCK_-1" source="7MWBgJ4iMsJyTvNMB5a--8" target="7MWBgJ4iMsJyTvNMB5a--28" edge="1">
                    <mxGeometry relative="1" as="geometry"/>
                </mxCell>
                <mxCell id="7MWBgJ4iMsJyTvNMB5a--8" value="" style="ellipse;whiteSpace=wrap;html=1;fillColor=#1ba1e2;strokeColor=#006EAF;shadow=0;fontColor=#ffffff;" parent="crylg8JnlNkCyJXfwCK_-1" vertex="1">
                    <mxGeometry x="343.6811594202899" y="383" width="22.492753623188406" height="25.11111111111111" as="geometry"/>
                </mxCell>
                <mxCell id="7MWBgJ4iMsJyTvNMB5a--10" value="" style="ellipse;whiteSpace=wrap;html=1;fillColor=#1ba1e2;strokeColor=#006EAF;shadow=0;fontColor=#ffffff;" parent="crylg8JnlNkCyJXfwCK_-1" vertex="1">
                    <mxGeometry x="411.1594202898551" y="383" width="22.492753623188406" height="25.11111111111111" as="geometry"/>
                </mxCell>
                <mxCell id="7MWBgJ4iMsJyTvNMB5a--11" value="" style="ellipse;whiteSpace=wrap;html=1;fillColor=#1ba1e2;strokeColor=#006EAF;shadow=0;fontColor=#ffffff;" parent="crylg8JnlNkCyJXfwCK_-1" vertex="1">
                    <mxGeometry x="478.63768115942025" y="383" width="22.492753623188406" height="25.11111111111111" as="geometry"/>
                </mxCell>
                <mxCell id="7MWBgJ4iMsJyTvNMB5a--12" value="" style="ellipse;whiteSpace=wrap;html=1;fillColor=#d80073;strokeColor=#A50040;shadow=0;fontColor=#ffffff;" parent="crylg8JnlNkCyJXfwCK_-1" vertex="1">
                    <mxGeometry x="208.7246376811595" y="270" width="22.492753623188406" height="25.11111111111111" as="geometry"/>
                </mxCell>
                <mxCell id="7MWBgJ4iMsJyTvNMB5a--18" value="" style="ellipse;whiteSpace=wrap;html=1;fillColor=#d80073;strokeColor=#A50040;shadow=0;fontColor=#ffffff;" parent="crylg8JnlNkCyJXfwCK_-1" vertex="1">
                    <mxGeometry x="276.2028985507246" y="270" width="22.492753623188406" height="25.11111111111111" as="geometry"/>
                </mxCell>
                <mxCell id="7MWBgJ4iMsJyTvNMB5a--23" value="" style="ellipse;whiteSpace=wrap;html=1;fillColor=#d80073;strokeColor=#A50040;shadow=0;fontColor=#ffffff;" parent="crylg8JnlNkCyJXfwCK_-1" vertex="1">
                    <mxGeometry x="343.6811594202899" y="270" width="22.492753623188406" height="25.11111111111111" as="geometry"/>
                </mxCell>
                <mxCell id="7MWBgJ4iMsJyTvNMB5a--28" value="" style="ellipse;whiteSpace=wrap;html=1;fillColor=#d80073;strokeColor=#A50040;shadow=0;fontColor=#ffffff;" parent="crylg8JnlNkCyJXfwCK_-1" vertex="1">
                    <mxGeometry x="411.1594202898551" y="270" width="22.492753623188406" height="25.11111111111111" as="geometry"/>
                </mxCell>
                <mxCell id="7MWBgJ4iMsJyTvNMB5a--34" value="0" style="text;html=1;resizable=0;autosize=1;align=center;verticalAlign=middle;points=[];fillColor=none;strokeColor=none;rounded=0;shadow=0;sketch=1;" parent="crylg8JnlNkCyJXfwCK_-1" vertex="1">
                    <mxGeometry x="141.2463768115942" y="433.2222222222222" width="20" height="20" as="geometry"/>
                </mxCell>
                <mxCell id="7MWBgJ4iMsJyTvNMB5a--35" value="0" style="text;html=1;resizable=0;autosize=1;align=center;verticalAlign=middle;points=[];fillColor=none;strokeColor=none;rounded=0;shadow=0;sketch=1;" parent="crylg8JnlNkCyJXfwCK_-1" vertex="1">
                    <mxGeometry x="208.7246376811595" y="433.2222222222222" width="20" height="20" as="geometry"/>
                </mxCell>
                <mxCell id="7MWBgJ4iMsJyTvNMB5a--36" value="0" style="text;html=1;resizable=0;autosize=1;align=center;verticalAlign=middle;points=[];fillColor=none;strokeColor=none;rounded=0;shadow=0;sketch=1;" parent="crylg8JnlNkCyJXfwCK_-1" vertex="1">
                    <mxGeometry x="276.2028985507246" y="433.2222222222222" width="20" height="20" as="geometry"/>
                </mxCell>
                <mxCell id="7MWBgJ4iMsJyTvNMB5a--37" value="1" style="text;html=1;resizable=0;autosize=1;align=center;verticalAlign=middle;points=[];fillColor=none;strokeColor=none;rounded=0;shadow=0;sketch=1;" parent="crylg8JnlNkCyJXfwCK_-1" vertex="1">
                    <mxGeometry x="343.6811594202899" y="433.2222222222222" width="20" height="20" as="geometry"/>
                </mxCell>
                <mxCell id="7MWBgJ4iMsJyTvNMB5a--38" value="0" style="text;html=1;resizable=0;autosize=1;align=center;verticalAlign=middle;points=[];fillColor=none;strokeColor=none;rounded=0;shadow=0;sketch=1;" parent="crylg8JnlNkCyJXfwCK_-1" vertex="1">
                    <mxGeometry x="411.1594202898551" y="433.2222222222222" width="20" height="20" as="geometry"/>
                </mxCell>
                <mxCell id="7MWBgJ4iMsJyTvNMB5a--39" value="0" style="text;html=1;resizable=0;autosize=1;align=center;verticalAlign=middle;points=[];fillColor=none;strokeColor=none;rounded=0;shadow=0;sketch=1;" parent="crylg8JnlNkCyJXfwCK_-1" vertex="1">
                    <mxGeometry x="478.63768115942025" y="433.2222222222222" width="20" height="20" as="geometry"/>
                </mxCell>
                <mxCell id="7MWBgJ4iMsJyTvNMB5a--40" value="天空" style="text;html=1;resizable=0;autosize=1;align=center;verticalAlign=middle;points=[];fillColor=none;strokeColor=none;rounded=0;" parent="crylg8JnlNkCyJXfwCK_-1" vertex="1">
                    <mxGeometry x="130" y="470.8888888888889" width="40" height="20" as="geometry"/>
                </mxCell>
                <mxCell id="7MWBgJ4iMsJyTvNMB5a--41" value="学习" style="text;html=1;resizable=0;autosize=1;align=center;verticalAlign=middle;points=[];fillColor=none;strokeColor=none;rounded=0;" parent="crylg8JnlNkCyJXfwCK_-1" vertex="1">
                    <mxGeometry x="197.47826086956525" y="470.8888888888889" width="40" height="20" as="geometry"/>
                </mxCell>
                <mxCell id="7MWBgJ4iMsJyTvNMB5a--42" value="....." style="text;html=1;resizable=0;autosize=1;align=center;verticalAlign=middle;points=[];fillColor=none;strokeColor=none;rounded=0;" parent="crylg8JnlNkCyJXfwCK_-1" vertex="1">
                    <mxGeometry x="270.5797101449275" y="470.8888888888889" width="30" height="20" as="geometry"/>
                </mxCell>
                <mxCell id="7MWBgJ4iMsJyTvNMB5a--43" value="....." style="text;html=1;resizable=0;autosize=1;align=center;verticalAlign=middle;points=[];fillColor=none;strokeColor=none;rounded=0;" parent="crylg8JnlNkCyJXfwCK_-1" vertex="1">
                    <mxGeometry x="270.5797101449275" y="395.55555555555554" width="30" height="20" as="geometry"/>
                </mxCell>
                <mxCell id="7MWBgJ4iMsJyTvNMB5a--44" value="图书馆" style="text;html=1;resizable=0;autosize=1;align=center;verticalAlign=middle;points=[];fillColor=none;strokeColor=none;rounded=0;" parent="crylg8JnlNkCyJXfwCK_-1" vertex="1">
                    <mxGeometry x="326.8115942028986" y="470.8888888888889" width="50" height="20" as="geometry"/>
                </mxCell>
                <mxCell id="7MWBgJ4iMsJyTvNMB5a--45" value="达" style="text;html=1;resizable=0;autosize=1;align=center;verticalAlign=middle;points=[];fillColor=none;strokeColor=none;rounded=0;" parent="crylg8JnlNkCyJXfwCK_-1" vertex="1">
                    <mxGeometry x="405.536231884058" y="470.8888888888889" width="30" height="20" as="geometry"/>
                </mxCell>
                <mxCell id="7MWBgJ4iMsJyTvNMB5a--46" value="占座" style="text;html=1;resizable=0;autosize=1;align=center;verticalAlign=middle;points=[];fillColor=none;strokeColor=none;rounded=0;" parent="crylg8JnlNkCyJXfwCK_-1" vertex="1">
                    <mxGeometry x="473.01449275362324" y="470.8888888888889" width="40" height="20" as="geometry"/>
                </mxCell>
                <mxCell id="7MWBgJ4iMsJyTvNMB5a--47" value="0.3" style="text;html=1;resizable=0;autosize=1;align=center;verticalAlign=middle;points=[];fillColor=none;strokeColor=none;rounded=0;shadow=0;sketch=1;labelBackgroundColor=#6BBFFF;" parent="crylg8JnlNkCyJXfwCK_-1" vertex="1">
                    <mxGeometry x="206.2146376811595" y="240.00222222222214" width="30" height="20" as="geometry"/>
                </mxCell>
                <mxCell id="7MWBgJ4iMsJyTvNMB5a--48" value="-0.6" style="text;html=1;resizable=0;autosize=1;align=center;verticalAlign=middle;points=[];fillColor=none;strokeColor=none;rounded=0;shadow=0;sketch=1;labelBackgroundColor=#6BBFFF;" parent="crylg8JnlNkCyJXfwCK_-1" vertex="1">
                    <mxGeometry x="268.00463768115947" y="240.00222222222214" width="40" height="20" as="geometry"/>
                </mxCell>
                <mxCell id="7MWBgJ4iMsJyTvNMB5a--49" value="1.3" style="text;html=1;resizable=0;autosize=1;align=center;verticalAlign=middle;points=[];fillColor=none;strokeColor=none;rounded=0;shadow=0;sketch=1;labelBackgroundColor=#6BBFFF;" parent="crylg8JnlNkCyJXfwCK_-1" vertex="1">
                    <mxGeometry x="339.9246376811594" y="240.00222222222214" width="30" height="20" as="geometry"/>
                </mxCell>
                <mxCell id="7MWBgJ4iMsJyTvNMB5a--50" value="0.2" style="text;html=1;resizable=0;autosize=1;align=center;verticalAlign=middle;points=[];fillColor=none;strokeColor=none;rounded=0;shadow=0;sketch=1;labelBackgroundColor=#6BBFFF;" parent="crylg8JnlNkCyJXfwCK_-1" vertex="1">
                    <mxGeometry x="403.65463768115944" y="240.00222222222214" width="30" height="20" as="geometry"/>
                </mxCell>
                <mxCell id="7MWBgJ4iMsJyTvNMB5a--55" value="0.3" style="text;html=1;resizable=0;autosize=1;align=center;verticalAlign=middle;points=[];fillColor=none;strokeColor=none;rounded=0;shadow=0;sketch=1;labelBackgroundColor=#6BBFFF;" parent="crylg8JnlNkCyJXfwCK_-1" vertex="1">
                    <mxGeometry x="246.2046376811595" y="320.00222222222214" width="30" height="20" as="geometry"/>
                </mxCell>
                <mxCell id="7MWBgJ4iMsJyTvNMB5a--56" value="-0.6" style="text;html=1;resizable=0;autosize=1;align=center;verticalAlign=middle;points=[];fillColor=none;strokeColor=none;rounded=0;shadow=0;sketch=1;labelBackgroundColor=#6BBFFF;" parent="crylg8JnlNkCyJXfwCK_-1" vertex="1">
                    <mxGeometry x="300.58463768115945" y="320.00222222222214" width="40" height="20" as="geometry"/>
                </mxCell>
                <mxCell id="7MWBgJ4iMsJyTvNMB5a--57" value="1.3" style="text;html=1;resizable=0;autosize=1;align=center;verticalAlign=middle;points=[];fillColor=none;strokeColor=none;rounded=0;shadow=0;sketch=1;labelBackgroundColor=#6BBFFF;" parent="crylg8JnlNkCyJXfwCK_-1" vertex="1">
                    <mxGeometry x="343.6846376811594" y="320.00222222222214" width="30" height="20" as="geometry"/>
                </mxCell>
                <mxCell id="7MWBgJ4iMsJyTvNMB5a--58" value="0.2" style="text;html=1;resizable=0;autosize=1;align=center;verticalAlign=middle;points=[];fillColor=none;strokeColor=none;rounded=0;shadow=0;sketch=1;labelBackgroundColor=#6BBFFF;" parent="crylg8JnlNkCyJXfwCK_-1" vertex="1">
                    <mxGeometry x="384.00463768115947" y="320.00222222222214" width="30" height="20" as="geometry"/>
                </mxCell>
            </root>
        </mxGraphModel>
    </diagram>
    <diagram id="XnuTHsC5_SB5wEki9Jox" name="第 5 页">
        <mxGraphModel dx="881" dy="813" grid="1" gridSize="10" guides="1" tooltips="1" connect="1" arrows="1" fold="1" page="1" pageScale="1" pageWidth="827" pageHeight="1169" math="0" shadow="0">
            <root>
                <mxCell id="oQyxhixwjcvU4bnxFOjp-0"/>
                <mxCell id="oQyxhixwjcvU4bnxFOjp-1" parent="oQyxhixwjcvU4bnxFOjp-0"/>
                <mxCell id="oQyxhixwjcvU4bnxFOjp-8" style="edgeStyle=none;rounded=0;orthogonalLoop=1;jettySize=auto;html=1;exitX=1;exitY=0.5;exitDx=0;exitDy=0;entryX=0;entryY=0.5;entryDx=0;entryDy=0;startArrow=none;startFill=0;endArrow=classic;endFill=1;strokeWidth=1;" parent="oQyxhixwjcvU4bnxFOjp-1" source="oQyxhixwjcvU4bnxFOjp-2" target="oQyxhixwjcvU4bnxFOjp-6" edge="1">
                    <mxGeometry relative="1" as="geometry"/>
                </mxCell>
                <mxCell id="oQyxhixwjcvU4bnxFOjp-2" value="" style="whiteSpace=wrap;html=1;shadow=0;labelBackgroundColor=#6BBFFF;sketch=0;" parent="oQyxhixwjcvU4bnxFOjp-1" vertex="1">
                    <mxGeometry x="80" y="200" width="50" height="30" as="geometry"/>
                </mxCell>
                <mxCell id="oQyxhixwjcvU4bnxFOjp-10" style="edgeStyle=none;rounded=0;orthogonalLoop=1;jettySize=auto;html=1;exitX=1;exitY=0.5;exitDx=0;exitDy=0;entryX=0;entryY=0.5;entryDx=0;entryDy=0;startArrow=none;startFill=0;endArrow=classic;endFill=1;strokeWidth=1;" parent="oQyxhixwjcvU4bnxFOjp-1" source="oQyxhixwjcvU4bnxFOjp-3" target="oQyxhixwjcvU4bnxFOjp-6" edge="1">
                    <mxGeometry relative="1" as="geometry"/>
                </mxCell>
                <mxCell id="oQyxhixwjcvU4bnxFOjp-3" value="" style="whiteSpace=wrap;html=1;shadow=0;labelBackgroundColor=#6BBFFF;sketch=0;" parent="oQyxhixwjcvU4bnxFOjp-1" vertex="1">
                    <mxGeometry x="80" y="250" width="50" height="30" as="geometry"/>
                </mxCell>
                <mxCell id="oQyxhixwjcvU4bnxFOjp-11" style="edgeStyle=none;rounded=0;orthogonalLoop=1;jettySize=auto;html=1;exitX=1;exitY=0.25;exitDx=0;exitDy=0;entryX=0;entryY=0.5;entryDx=0;entryDy=0;startArrow=none;startFill=0;endArrow=classic;endFill=1;strokeWidth=1;" parent="oQyxhixwjcvU4bnxFOjp-1" source="oQyxhixwjcvU4bnxFOjp-4" target="oQyxhixwjcvU4bnxFOjp-6" edge="1">
                    <mxGeometry relative="1" as="geometry"/>
                </mxCell>
                <mxCell id="oQyxhixwjcvU4bnxFOjp-4" value="" style="whiteSpace=wrap;html=1;shadow=0;labelBackgroundColor=#6BBFFF;sketch=0;" parent="oQyxhixwjcvU4bnxFOjp-1" vertex="1">
                    <mxGeometry x="80" y="340" width="50" height="30" as="geometry"/>
                </mxCell>
                <mxCell id="oQyxhixwjcvU4bnxFOjp-12" style="edgeStyle=none;rounded=0;orthogonalLoop=1;jettySize=auto;html=1;exitX=1;exitY=0.5;exitDx=0;exitDy=0;startArrow=none;startFill=0;endArrow=classic;endFill=1;strokeWidth=1;" parent="oQyxhixwjcvU4bnxFOjp-1" source="oQyxhixwjcvU4bnxFOjp-5" edge="1">
                    <mxGeometry relative="1" as="geometry">
                        <mxPoint x="200" y="310" as="targetPoint"/>
                    </mxGeometry>
                </mxCell>
                <mxCell id="oQyxhixwjcvU4bnxFOjp-5" value="" style="whiteSpace=wrap;html=1;shadow=0;labelBackgroundColor=#6BBFFF;sketch=0;" parent="oQyxhixwjcvU4bnxFOjp-1" vertex="1">
                    <mxGeometry x="80" y="390" width="50" height="30" as="geometry"/>
                </mxCell>
                <mxCell id="oQyxhixwjcvU4bnxFOjp-13" style="edgeStyle=none;rounded=0;orthogonalLoop=1;jettySize=auto;html=1;exitX=1;exitY=0.5;exitDx=0;exitDy=0;startArrow=none;startFill=0;endArrow=classic;endFill=1;strokeWidth=1;" parent="oQyxhixwjcvU4bnxFOjp-1" source="oQyxhixwjcvU4bnxFOjp-6" target="oQyxhixwjcvU4bnxFOjp-7" edge="1">
                    <mxGeometry relative="1" as="geometry"/>
                </mxCell>
                <mxCell id="oQyxhixwjcvU4bnxFOjp-6" value="" style="whiteSpace=wrap;html=1;shadow=0;labelBackgroundColor=#6BBFFF;sketch=0;" parent="oQyxhixwjcvU4bnxFOjp-1" vertex="1">
                    <mxGeometry x="200" y="300" width="50" height="30" as="geometry"/>
                </mxCell>
                <mxCell id="oQyxhixwjcvU4bnxFOjp-7" value="" style="whiteSpace=wrap;html=1;shadow=0;labelBackgroundColor=#6BBFFF;sketch=0;" parent="oQyxhixwjcvU4bnxFOjp-1" vertex="1">
                    <mxGeometry x="300" y="300" width="50" height="30" as="geometry"/>
                </mxCell>
                <mxCell id="oQyxhixwjcvU4bnxFOjp-14" value="w(t-2)" style="text;html=1;resizable=0;autosize=1;align=center;verticalAlign=middle;points=[];fillColor=none;strokeColor=none;rounded=0;shadow=0;labelBackgroundColor=#6BBFFF;sketch=0;" parent="oQyxhixwjcvU4bnxFOjp-1" vertex="1">
                    <mxGeometry x="15" y="205" width="50" height="20" as="geometry"/>
                </mxCell>
                <mxCell id="oQyxhixwjcvU4bnxFOjp-15" value="w(t-1)" style="text;html=1;resizable=0;autosize=1;align=center;verticalAlign=middle;points=[];fillColor=none;strokeColor=none;rounded=0;shadow=0;labelBackgroundColor=#6BBFFF;sketch=0;" parent="oQyxhixwjcvU4bnxFOjp-1" vertex="1">
                    <mxGeometry x="15" y="255" width="50" height="20" as="geometry"/>
                </mxCell>
                <mxCell id="oQyxhixwjcvU4bnxFOjp-16" value="w(t+1)" style="text;html=1;resizable=0;autosize=1;align=center;verticalAlign=middle;points=[];fillColor=none;strokeColor=none;rounded=0;shadow=0;labelBackgroundColor=#6BBFFF;sketch=0;" parent="oQyxhixwjcvU4bnxFOjp-1" vertex="1">
                    <mxGeometry x="15" y="345" width="50" height="20" as="geometry"/>
                </mxCell>
                <mxCell id="oQyxhixwjcvU4bnxFOjp-17" value="w(t+2)" style="text;html=1;resizable=0;autosize=1;align=center;verticalAlign=middle;points=[];fillColor=none;strokeColor=none;rounded=0;shadow=0;labelBackgroundColor=#6BBFFF;sketch=0;" parent="oQyxhixwjcvU4bnxFOjp-1" vertex="1">
                    <mxGeometry x="15" y="395" width="50" height="20" as="geometry"/>
                </mxCell>
                <mxCell id="oQyxhixwjcvU4bnxFOjp-18" value="SUM" style="text;html=1;resizable=0;autosize=1;align=center;verticalAlign=middle;points=[];rounded=0;shadow=0;labelBackgroundColor=#FFFFFF;sketch=0;" parent="oQyxhixwjcvU4bnxFOjp-1" vertex="1">
                    <mxGeometry x="205" y="275" width="40" height="20" as="geometry"/>
                </mxCell>
                <mxCell id="oQyxhixwjcvU4bnxFOjp-19" value="w(t)" style="text;html=1;resizable=0;autosize=1;align=center;verticalAlign=middle;points=[];fillColor=none;strokeColor=none;rounded=0;shadow=0;labelBackgroundColor=#6BBFFF;sketch=0;" parent="oQyxhixwjcvU4bnxFOjp-1" vertex="1">
                    <mxGeometry x="305" y="270" width="40" height="20" as="geometry"/>
                </mxCell>
                <mxCell id="oQyxhixwjcvU4bnxFOjp-21" value="" style="whiteSpace=wrap;html=1;shadow=0;labelBackgroundColor=#6BBFFF;sketch=0;" parent="oQyxhixwjcvU4bnxFOjp-1" vertex="1">
                    <mxGeometry x="650" y="200" width="50" height="30" as="geometry"/>
                </mxCell>
                <mxCell id="oQyxhixwjcvU4bnxFOjp-23" value="" style="whiteSpace=wrap;html=1;shadow=0;labelBackgroundColor=#6BBFFF;sketch=0;" parent="oQyxhixwjcvU4bnxFOjp-1" vertex="1">
                    <mxGeometry x="650" y="255" width="50" height="30" as="geometry"/>
                </mxCell>
                <mxCell id="oQyxhixwjcvU4bnxFOjp-25" value="" style="whiteSpace=wrap;html=1;shadow=0;labelBackgroundColor=#6BBFFF;sketch=0;" parent="oQyxhixwjcvU4bnxFOjp-1" vertex="1">
                    <mxGeometry x="650" y="345" width="50" height="30" as="geometry"/>
                </mxCell>
                <mxCell id="oQyxhixwjcvU4bnxFOjp-27" value="" style="whiteSpace=wrap;html=1;shadow=0;labelBackgroundColor=#6BBFFF;sketch=0;" parent="oQyxhixwjcvU4bnxFOjp-1" vertex="1">
                    <mxGeometry x="650" y="395" width="50" height="30" as="geometry"/>
                </mxCell>
                <mxCell id="oQyxhixwjcvU4bnxFOjp-35" style="edgeStyle=none;rounded=0;orthogonalLoop=1;jettySize=auto;html=1;exitX=1;exitY=0.5;exitDx=0;exitDy=0;entryX=0;entryY=0.5;entryDx=0;entryDy=0;startArrow=none;startFill=0;endArrow=classic;endFill=1;strokeWidth=1;" parent="oQyxhixwjcvU4bnxFOjp-1" source="oQyxhixwjcvU4bnxFOjp-29" target="oQyxhixwjcvU4bnxFOjp-21" edge="1">
                    <mxGeometry relative="1" as="geometry"/>
                </mxCell>
                <mxCell id="oQyxhixwjcvU4bnxFOjp-36" style="edgeStyle=none;rounded=0;orthogonalLoop=1;jettySize=auto;html=1;exitX=1;exitY=0.5;exitDx=0;exitDy=0;entryX=0;entryY=0.5;entryDx=0;entryDy=0;startArrow=none;startFill=0;endArrow=classic;endFill=1;strokeWidth=1;" parent="oQyxhixwjcvU4bnxFOjp-1" source="oQyxhixwjcvU4bnxFOjp-29" target="oQyxhixwjcvU4bnxFOjp-23" edge="1">
                    <mxGeometry relative="1" as="geometry"/>
                </mxCell>
                <mxCell id="oQyxhixwjcvU4bnxFOjp-37" style="edgeStyle=none;rounded=0;orthogonalLoop=1;jettySize=auto;html=1;exitX=1;exitY=0.5;exitDx=0;exitDy=0;entryX=0;entryY=0.5;entryDx=0;entryDy=0;startArrow=none;startFill=0;endArrow=classic;endFill=1;strokeWidth=1;" parent="oQyxhixwjcvU4bnxFOjp-1" source="oQyxhixwjcvU4bnxFOjp-29" target="oQyxhixwjcvU4bnxFOjp-25" edge="1">
                    <mxGeometry relative="1" as="geometry"/>
                </mxCell>
                <mxCell id="oQyxhixwjcvU4bnxFOjp-38" style="edgeStyle=none;rounded=0;orthogonalLoop=1;jettySize=auto;html=1;exitX=1;exitY=0.5;exitDx=0;exitDy=0;entryX=0;entryY=0.5;entryDx=0;entryDy=0;startArrow=none;startFill=0;endArrow=classic;endFill=1;strokeWidth=1;" parent="oQyxhixwjcvU4bnxFOjp-1" source="oQyxhixwjcvU4bnxFOjp-29" target="oQyxhixwjcvU4bnxFOjp-27" edge="1">
                    <mxGeometry relative="1" as="geometry"/>
                </mxCell>
                <mxCell id="oQyxhixwjcvU4bnxFOjp-29" value="" style="whiteSpace=wrap;html=1;shadow=0;labelBackgroundColor=#6BBFFF;sketch=0;" parent="oQyxhixwjcvU4bnxFOjp-1" vertex="1">
                    <mxGeometry x="550" y="300" width="50" height="30" as="geometry"/>
                </mxCell>
                <mxCell id="oQyxhixwjcvU4bnxFOjp-34" style="edgeStyle=none;rounded=0;orthogonalLoop=1;jettySize=auto;html=1;exitX=1;exitY=0.5;exitDx=0;exitDy=0;entryX=0;entryY=0.5;entryDx=0;entryDy=0;startArrow=none;startFill=0;endArrow=classic;endFill=1;strokeWidth=1;" parent="oQyxhixwjcvU4bnxFOjp-1" source="oQyxhixwjcvU4bnxFOjp-30" target="oQyxhixwjcvU4bnxFOjp-29" edge="1">
                    <mxGeometry relative="1" as="geometry"/>
                </mxCell>
                <mxCell id="oQyxhixwjcvU4bnxFOjp-30" value="" style="whiteSpace=wrap;html=1;shadow=0;labelBackgroundColor=#6BBFFF;sketch=0;" parent="oQyxhixwjcvU4bnxFOjp-1" vertex="1">
                    <mxGeometry x="440" y="300" width="50" height="30" as="geometry"/>
                </mxCell>
                <mxCell id="oQyxhixwjcvU4bnxFOjp-32" value="w(t)" style="text;html=1;resizable=0;autosize=1;align=center;verticalAlign=middle;points=[];fillColor=none;strokeColor=none;rounded=0;shadow=0;labelBackgroundColor=#6BBFFF;sketch=0;" parent="oQyxhixwjcvU4bnxFOjp-1" vertex="1">
                    <mxGeometry x="445" y="270" width="40" height="20" as="geometry"/>
                </mxCell>
                <mxCell id="oQyxhixwjcvU4bnxFOjp-39" value="w(t-2)" style="text;html=1;resizable=0;autosize=1;align=center;verticalAlign=middle;points=[];fillColor=none;strokeColor=none;rounded=0;shadow=0;labelBackgroundColor=#6BBFFF;sketch=0;" parent="oQyxhixwjcvU4bnxFOjp-1" vertex="1">
                    <mxGeometry x="730" y="200" width="50" height="20" as="geometry"/>
                </mxCell>
                <mxCell id="oQyxhixwjcvU4bnxFOjp-40" value="w(t-1)" style="text;html=1;resizable=0;autosize=1;align=center;verticalAlign=middle;points=[];fillColor=none;strokeColor=none;rounded=0;shadow=0;labelBackgroundColor=#6BBFFF;sketch=0;" parent="oQyxhixwjcvU4bnxFOjp-1" vertex="1">
                    <mxGeometry x="730" y="250" width="50" height="20" as="geometry"/>
                </mxCell>
                <mxCell id="oQyxhixwjcvU4bnxFOjp-41" value="w(t+1)" style="text;html=1;resizable=0;autosize=1;align=center;verticalAlign=middle;points=[];fillColor=none;strokeColor=none;rounded=0;shadow=0;labelBackgroundColor=#6BBFFF;sketch=0;" parent="oQyxhixwjcvU4bnxFOjp-1" vertex="1">
                    <mxGeometry x="730" y="340" width="50" height="20" as="geometry"/>
                </mxCell>
                <mxCell id="oQyxhixwjcvU4bnxFOjp-42" value="w(t+2)" style="text;html=1;resizable=0;autosize=1;align=center;verticalAlign=middle;points=[];fillColor=none;strokeColor=none;rounded=0;shadow=0;labelBackgroundColor=#6BBFFF;sketch=0;" parent="oQyxhixwjcvU4bnxFOjp-1" vertex="1">
                    <mxGeometry x="730" y="390" width="50" height="20" as="geometry"/>
                </mxCell>
            </root>
        </mxGraphModel>
    </diagram>
    <diagram id="LCsusXm3NIc6rArWFx5L" name="第 6 页">
        <mxGraphModel dx="881" dy="813" grid="1" gridSize="10" guides="1" tooltips="1" connect="1" arrows="1" fold="1" page="1" pageScale="1" pageWidth="827" pageHeight="1169" math="0" shadow="0">
            <root>
                <mxCell id="YKplfmEHhkDIiZlQefkw-0"/>
                <mxCell id="YKplfmEHhkDIiZlQefkw-1" parent="YKplfmEHhkDIiZlQefkw-0"/>
                <mxCell id="YKplfmEHhkDIiZlQefkw-2" style="edgeStyle=none;rounded=0;orthogonalLoop=1;jettySize=auto;html=1;exitX=0.5;exitY=0;exitDx=0;exitDy=0;entryX=0.5;entryY=1;entryDx=0;entryDy=0;endArrow=none;endFill=0;" parent="YKplfmEHhkDIiZlQefkw-1" source="YKplfmEHhkDIiZlQefkw-4" target="YKplfmEHhkDIiZlQefkw-7" edge="1">
                    <mxGeometry relative="1" as="geometry"/>
                </mxCell>
                <mxCell id="YKplfmEHhkDIiZlQefkw-3" style="edgeStyle=none;rounded=0;orthogonalLoop=1;jettySize=auto;html=1;exitX=0.5;exitY=0;exitDx=0;exitDy=0;entryX=0.5;entryY=1;entryDx=0;entryDy=0;endArrow=none;endFill=0;" parent="YKplfmEHhkDIiZlQefkw-1" source="YKplfmEHhkDIiZlQefkw-4" target="YKplfmEHhkDIiZlQefkw-17" edge="1">
                    <mxGeometry relative="1" as="geometry"/>
                </mxCell>
                <mxCell id="YKplfmEHhkDIiZlQefkw-4" value="" style="whiteSpace=wrap;html=1;fillColor=#d5e8d4;strokeColor=#82b366;" parent="YKplfmEHhkDIiZlQefkw-1" vertex="1">
                    <mxGeometry x="100" y="360" width="40" height="20" as="geometry"/>
                </mxCell>
                <mxCell id="YKplfmEHhkDIiZlQefkw-5" style="edgeStyle=none;rounded=0;orthogonalLoop=1;jettySize=auto;html=1;exitX=0.5;exitY=1;exitDx=0;exitDy=0;entryX=0.5;entryY=0;entryDx=0;entryDy=0;endArrow=none;endFill=0;" parent="YKplfmEHhkDIiZlQefkw-1" source="YKplfmEHhkDIiZlQefkw-7" target="YKplfmEHhkDIiZlQefkw-8" edge="1">
                    <mxGeometry relative="1" as="geometry"/>
                </mxCell>
                <mxCell id="YKplfmEHhkDIiZlQefkw-6" style="edgeStyle=none;rounded=0;orthogonalLoop=1;jettySize=auto;html=1;exitX=0.5;exitY=0;exitDx=0;exitDy=0;entryX=0.5;entryY=1;entryDx=0;entryDy=0;endArrow=none;endFill=0;" parent="YKplfmEHhkDIiZlQefkw-1" source="YKplfmEHhkDIiZlQefkw-7" target="YKplfmEHhkDIiZlQefkw-30" edge="1">
                    <mxGeometry relative="1" as="geometry"/>
                </mxCell>
                <mxCell id="YKplfmEHhkDIiZlQefkw-7" value="" style="ellipse;whiteSpace=wrap;html=1;fillColor=#f8cecc;strokeColor=#b85450;shadow=0;" parent="YKplfmEHhkDIiZlQefkw-1" vertex="1">
                    <mxGeometry x="30" y="260" width="20" height="20" as="geometry"/>
                </mxCell>
                <mxCell id="YKplfmEHhkDIiZlQefkw-8" value="" style="whiteSpace=wrap;html=1;fillColor=#d5e8d4;strokeColor=#82b366;" parent="YKplfmEHhkDIiZlQefkw-1" vertex="1">
                    <mxGeometry x="180" y="360" width="40" height="20" as="geometry"/>
                </mxCell>
                <mxCell id="YKplfmEHhkDIiZlQefkw-9" style="edgeStyle=none;rounded=0;orthogonalLoop=1;jettySize=auto;html=1;exitX=0.5;exitY=0;exitDx=0;exitDy=0;entryX=0.5;entryY=1;entryDx=0;entryDy=0;endArrow=none;endFill=0;" parent="YKplfmEHhkDIiZlQefkw-1" source="YKplfmEHhkDIiZlQefkw-14" target="YKplfmEHhkDIiZlQefkw-29" edge="1">
                    <mxGeometry relative="1" as="geometry"/>
                </mxCell>
                <mxCell id="YKplfmEHhkDIiZlQefkw-10" style="edgeStyle=none;rounded=0;orthogonalLoop=1;jettySize=auto;html=1;exitX=0.5;exitY=0;exitDx=0;exitDy=0;entryX=0.5;entryY=1;entryDx=0;entryDy=0;endArrow=none;endFill=0;" parent="YKplfmEHhkDIiZlQefkw-1" source="YKplfmEHhkDIiZlQefkw-14" target="YKplfmEHhkDIiZlQefkw-25" edge="1">
                    <mxGeometry relative="1" as="geometry"/>
                </mxCell>
                <mxCell id="YKplfmEHhkDIiZlQefkw-11" style="edgeStyle=none;rounded=0;orthogonalLoop=1;jettySize=auto;html=1;exitX=0.5;exitY=0;exitDx=0;exitDy=0;entryX=0.5;entryY=1;entryDx=0;entryDy=0;endArrow=none;endFill=0;" parent="YKplfmEHhkDIiZlQefkw-1" source="YKplfmEHhkDIiZlQefkw-14" target="YKplfmEHhkDIiZlQefkw-21" edge="1">
                    <mxGeometry relative="1" as="geometry"/>
                </mxCell>
                <mxCell id="YKplfmEHhkDIiZlQefkw-12" style="edgeStyle=none;rounded=0;orthogonalLoop=1;jettySize=auto;html=1;exitX=0.5;exitY=0;exitDx=0;exitDy=0;endArrow=none;endFill=0;" parent="YKplfmEHhkDIiZlQefkw-1" source="YKplfmEHhkDIiZlQefkw-14" edge="1">
                    <mxGeometry relative="1" as="geometry">
                        <mxPoint x="120" y="280" as="targetPoint"/>
                    </mxGeometry>
                </mxCell>
                <mxCell id="YKplfmEHhkDIiZlQefkw-13" style="edgeStyle=none;rounded=0;orthogonalLoop=1;jettySize=auto;html=1;exitX=0.25;exitY=0;exitDx=0;exitDy=0;entryX=0.5;entryY=1;entryDx=0;entryDy=0;endArrow=none;endFill=0;" parent="YKplfmEHhkDIiZlQefkw-1" source="YKplfmEHhkDIiZlQefkw-14" target="YKplfmEHhkDIiZlQefkw-7" edge="1">
                    <mxGeometry relative="1" as="geometry"/>
                </mxCell>
                <mxCell id="YKplfmEHhkDIiZlQefkw-14" value="" style="whiteSpace=wrap;html=1;fillColor=#d5e8d4;strokeColor=#82b366;" parent="YKplfmEHhkDIiZlQefkw-1" vertex="1">
                    <mxGeometry x="260" y="360" width="40" height="20" as="geometry"/>
                </mxCell>
                <mxCell id="YKplfmEHhkDIiZlQefkw-15" style="edgeStyle=none;rounded=0;orthogonalLoop=1;jettySize=auto;html=1;exitX=0.5;exitY=1;exitDx=0;exitDy=0;endArrow=none;endFill=0;" parent="YKplfmEHhkDIiZlQefkw-1" source="YKplfmEHhkDIiZlQefkw-17" edge="1">
                    <mxGeometry relative="1" as="geometry">
                        <mxPoint x="200" y="360" as="targetPoint"/>
                    </mxGeometry>
                </mxCell>
                <mxCell id="YKplfmEHhkDIiZlQefkw-16" style="edgeStyle=none;rounded=0;orthogonalLoop=1;jettySize=auto;html=1;exitX=0.5;exitY=0;exitDx=0;exitDy=0;entryX=0.5;entryY=1;entryDx=0;entryDy=0;endArrow=none;endFill=0;" parent="YKplfmEHhkDIiZlQefkw-1" source="YKplfmEHhkDIiZlQefkw-17" target="YKplfmEHhkDIiZlQefkw-30" edge="1">
                    <mxGeometry relative="1" as="geometry"/>
                </mxCell>
                <mxCell id="YKplfmEHhkDIiZlQefkw-17" value="" style="ellipse;whiteSpace=wrap;html=1;fillColor=#f8cecc;strokeColor=#b85450;shadow=0;" parent="YKplfmEHhkDIiZlQefkw-1" vertex="1">
                    <mxGeometry x="110" y="260" width="20" height="20" as="geometry"/>
                </mxCell>
                <mxCell id="YKplfmEHhkDIiZlQefkw-18" style="edgeStyle=none;rounded=0;orthogonalLoop=1;jettySize=auto;html=1;exitX=0.5;exitY=1;exitDx=0;exitDy=0;entryX=0.5;entryY=0;entryDx=0;entryDy=0;endArrow=none;endFill=0;" parent="YKplfmEHhkDIiZlQefkw-1" source="YKplfmEHhkDIiZlQefkw-21" target="YKplfmEHhkDIiZlQefkw-4" edge="1">
                    <mxGeometry relative="1" as="geometry"/>
                </mxCell>
                <mxCell id="YKplfmEHhkDIiZlQefkw-19" style="edgeStyle=none;rounded=0;orthogonalLoop=1;jettySize=auto;html=1;exitX=0.5;exitY=1;exitDx=0;exitDy=0;endArrow=none;endFill=0;" parent="YKplfmEHhkDIiZlQefkw-1" source="YKplfmEHhkDIiZlQefkw-21" edge="1">
                    <mxGeometry relative="1" as="geometry">
                        <mxPoint x="200" y="360" as="targetPoint"/>
                    </mxGeometry>
                </mxCell>
                <mxCell id="YKplfmEHhkDIiZlQefkw-20" style="edgeStyle=none;rounded=0;orthogonalLoop=1;jettySize=auto;html=1;exitX=0.5;exitY=0;exitDx=0;exitDy=0;entryX=0.5;entryY=1;entryDx=0;entryDy=0;endArrow=none;endFill=0;" parent="YKplfmEHhkDIiZlQefkw-1" source="YKplfmEHhkDIiZlQefkw-21" target="YKplfmEHhkDIiZlQefkw-30" edge="1">
                    <mxGeometry relative="1" as="geometry"/>
                </mxCell>
                <mxCell id="YKplfmEHhkDIiZlQefkw-21" value="" style="ellipse;whiteSpace=wrap;html=1;fillColor=#f8cecc;strokeColor=#b85450;shadow=0;" parent="YKplfmEHhkDIiZlQefkw-1" vertex="1">
                    <mxGeometry x="190" y="260" width="20" height="20" as="geometry"/>
                </mxCell>
                <mxCell id="YKplfmEHhkDIiZlQefkw-22" style="edgeStyle=none;rounded=0;orthogonalLoop=1;jettySize=auto;html=1;exitX=0.5;exitY=1;exitDx=0;exitDy=0;endArrow=none;endFill=0;" parent="YKplfmEHhkDIiZlQefkw-1" source="YKplfmEHhkDIiZlQefkw-25" edge="1">
                    <mxGeometry relative="1" as="geometry">
                        <mxPoint x="120" y="360" as="targetPoint"/>
                    </mxGeometry>
                </mxCell>
                <mxCell id="YKplfmEHhkDIiZlQefkw-23" style="edgeStyle=none;rounded=0;orthogonalLoop=1;jettySize=auto;html=1;exitX=0.5;exitY=1;exitDx=0;exitDy=0;endArrow=none;endFill=0;" parent="YKplfmEHhkDIiZlQefkw-1" source="YKplfmEHhkDIiZlQefkw-25" edge="1">
                    <mxGeometry relative="1" as="geometry">
                        <mxPoint x="200" y="360" as="targetPoint"/>
                    </mxGeometry>
                </mxCell>
                <mxCell id="YKplfmEHhkDIiZlQefkw-24" style="edgeStyle=none;rounded=0;orthogonalLoop=1;jettySize=auto;html=1;exitX=0.5;exitY=0;exitDx=0;exitDy=0;entryX=0.5;entryY=1;entryDx=0;entryDy=0;endArrow=none;endFill=0;" parent="YKplfmEHhkDIiZlQefkw-1" source="YKplfmEHhkDIiZlQefkw-25" target="YKplfmEHhkDIiZlQefkw-30" edge="1">
                    <mxGeometry relative="1" as="geometry"/>
                </mxCell>
                <mxCell id="YKplfmEHhkDIiZlQefkw-25" value="" style="ellipse;whiteSpace=wrap;html=1;fillColor=#f8cecc;strokeColor=#b85450;shadow=0;" parent="YKplfmEHhkDIiZlQefkw-1" vertex="1">
                    <mxGeometry x="270" y="260" width="20" height="20" as="geometry"/>
                </mxCell>
                <mxCell id="YKplfmEHhkDIiZlQefkw-26" style="edgeStyle=none;rounded=0;orthogonalLoop=1;jettySize=auto;html=1;exitX=0.5;exitY=1;exitDx=0;exitDy=0;entryX=0.5;entryY=0;entryDx=0;entryDy=0;endArrow=none;endFill=0;" parent="YKplfmEHhkDIiZlQefkw-1" source="YKplfmEHhkDIiZlQefkw-29" target="YKplfmEHhkDIiZlQefkw-4" edge="1">
                    <mxGeometry relative="1" as="geometry"/>
                </mxCell>
                <mxCell id="YKplfmEHhkDIiZlQefkw-27" style="edgeStyle=none;rounded=0;orthogonalLoop=1;jettySize=auto;html=1;exitX=0.5;exitY=1;exitDx=0;exitDy=0;endArrow=none;endFill=0;" parent="YKplfmEHhkDIiZlQefkw-1" source="YKplfmEHhkDIiZlQefkw-29" edge="1">
                    <mxGeometry relative="1" as="geometry">
                        <mxPoint x="200" y="360" as="targetPoint"/>
                    </mxGeometry>
                </mxCell>
                <mxCell id="YKplfmEHhkDIiZlQefkw-28" style="edgeStyle=none;rounded=0;orthogonalLoop=1;jettySize=auto;html=1;exitX=0.5;exitY=0;exitDx=0;exitDy=0;entryX=0.5;entryY=1;entryDx=0;entryDy=0;endArrow=none;endFill=0;" parent="YKplfmEHhkDIiZlQefkw-1" source="YKplfmEHhkDIiZlQefkw-29" target="YKplfmEHhkDIiZlQefkw-30" edge="1">
                    <mxGeometry relative="1" as="geometry"/>
                </mxCell>
                <mxCell id="YKplfmEHhkDIiZlQefkw-29" value="" style="ellipse;whiteSpace=wrap;html=1;fillColor=#f8cecc;strokeColor=#b85450;shadow=0;" parent="YKplfmEHhkDIiZlQefkw-1" vertex="1">
                    <mxGeometry x="350" y="260" width="20" height="20" as="geometry"/>
                </mxCell>
                <mxCell id="YKplfmEHhkDIiZlQefkw-30" value="" style="whiteSpace=wrap;html=1;fillColor=#d5e8d4;strokeColor=#82b366;" parent="YKplfmEHhkDIiZlQefkw-1" vertex="1">
                    <mxGeometry x="180" y="160" width="40" height="20" as="geometry"/>
                </mxCell>
                <mxCell id="YKplfmEHhkDIiZlQefkw-31" value="我们" style="text;html=1;resizable=0;autosize=1;align=center;verticalAlign=middle;points=[];fillColor=none;strokeColor=none;rounded=0;" parent="YKplfmEHhkDIiZlQefkw-1" vertex="1">
                    <mxGeometry x="10" y="390" width="40" height="20" as="geometry"/>
                </mxCell>
                <mxCell id="YKplfmEHhkDIiZlQefkw-32" value="一起" style="text;html=1;resizable=0;autosize=1;align=center;verticalAlign=middle;points=[];fillColor=none;strokeColor=none;rounded=0;" parent="YKplfmEHhkDIiZlQefkw-1" vertex="1">
                    <mxGeometry x="100" y="390" width="40" height="20" as="geometry"/>
                </mxCell>
                <mxCell id="YKplfmEHhkDIiZlQefkw-33" value="去" style="text;html=1;resizable=0;autosize=1;align=center;verticalAlign=middle;points=[];fillColor=none;strokeColor=none;rounded=0;" parent="YKplfmEHhkDIiZlQefkw-1" vertex="1">
                    <mxGeometry x="185" y="390" width="30" height="20" as="geometry"/>
                </mxCell>
                <mxCell id="YKplfmEHhkDIiZlQefkw-34" value="图书馆" style="text;html=1;resizable=0;autosize=1;align=center;verticalAlign=middle;points=[];fillColor=none;strokeColor=none;rounded=0;" parent="YKplfmEHhkDIiZlQefkw-1" vertex="1">
                    <mxGeometry x="255" y="390" width="50" height="20" as="geometry"/>
                </mxCell>
                <mxCell id="YKplfmEHhkDIiZlQefkw-35" value="学习" style="text;html=1;resizable=0;autosize=1;align=center;verticalAlign=middle;points=[];fillColor=none;strokeColor=none;rounded=0;" parent="YKplfmEHhkDIiZlQefkw-1" vertex="1">
                    <mxGeometry x="340" y="390" width="40" height="20" as="geometry"/>
                </mxCell>
                <mxCell id="YKplfmEHhkDIiZlQefkw-36" value="吧" style="text;html=1;resizable=0;autosize=1;align=center;verticalAlign=middle;points=[];fillColor=none;strokeColor=none;rounded=0;" parent="YKplfmEHhkDIiZlQefkw-1" vertex="1">
                    <mxGeometry x="425" y="390" width="30" height="20" as="geometry"/>
                </mxCell>
                <mxCell id="YKplfmEHhkDIiZlQefkw-37" value="学习" style="text;html=1;resizable=0;autosize=1;align=center;verticalAlign=middle;points=[];fillColor=none;strokeColor=none;rounded=0;" parent="YKplfmEHhkDIiZlQefkw-1" vertex="1">
                    <mxGeometry x="180" y="130" width="40" height="20" as="geometry"/>
                </mxCell>
                <mxCell id="YKplfmEHhkDIiZlQefkw-75" style="edgeStyle=none;rounded=0;orthogonalLoop=1;jettySize=auto;html=1;exitX=0.5;exitY=0;exitDx=0;exitDy=0;entryX=0.5;entryY=1;entryDx=0;entryDy=0;startArrow=none;startFill=0;endArrow=classic;endFill=1;strokeWidth=1;fontSize=27;" parent="YKplfmEHhkDIiZlQefkw-1" source="YKplfmEHhkDIiZlQefkw-40" target="YKplfmEHhkDIiZlQefkw-74" edge="1">
                    <mxGeometry relative="1" as="geometry"/>
                </mxCell>
                <mxCell id="YKplfmEHhkDIiZlQefkw-40" value="" style="whiteSpace=wrap;html=1;fillColor=#d5e8d4;strokeColor=#82b366;" parent="YKplfmEHhkDIiZlQefkw-1" vertex="1">
                    <mxGeometry x="110" y="675" width="40" height="20" as="geometry"/>
                </mxCell>
                <mxCell id="YKplfmEHhkDIiZlQefkw-76" style="edgeStyle=none;rounded=0;orthogonalLoop=1;jettySize=auto;html=1;exitX=0.5;exitY=0;exitDx=0;exitDy=0;startArrow=none;startFill=0;endArrow=classic;endFill=1;strokeWidth=1;fontSize=27;" parent="YKplfmEHhkDIiZlQefkw-1" source="YKplfmEHhkDIiZlQefkw-44" target="YKplfmEHhkDIiZlQefkw-74" edge="1">
                    <mxGeometry relative="1" as="geometry"/>
                </mxCell>
                <mxCell id="YKplfmEHhkDIiZlQefkw-44" value="" style="whiteSpace=wrap;html=1;fillColor=#d5e8d4;strokeColor=#82b366;" parent="YKplfmEHhkDIiZlQefkw-1" vertex="1">
                    <mxGeometry x="190" y="675" width="40" height="20" as="geometry"/>
                </mxCell>
                <mxCell id="YKplfmEHhkDIiZlQefkw-77" style="edgeStyle=none;rounded=0;orthogonalLoop=1;jettySize=auto;html=1;exitX=0.5;exitY=0;exitDx=0;exitDy=0;startArrow=none;startFill=0;endArrow=classic;endFill=1;strokeWidth=1;fontSize=27;entryX=0.5;entryY=1;entryDx=0;entryDy=0;" parent="YKplfmEHhkDIiZlQefkw-1" source="YKplfmEHhkDIiZlQefkw-50" target="YKplfmEHhkDIiZlQefkw-74" edge="1">
                    <mxGeometry relative="1" as="geometry">
                        <mxPoint x="210" y="610" as="targetPoint"/>
                    </mxGeometry>
                </mxCell>
                <mxCell id="YKplfmEHhkDIiZlQefkw-50" value="" style="whiteSpace=wrap;html=1;fillColor=#d5e8d4;strokeColor=#82b366;" parent="YKplfmEHhkDIiZlQefkw-1" vertex="1">
                    <mxGeometry x="270" y="675" width="40" height="20" as="geometry"/>
                </mxCell>
                <mxCell id="YKplfmEHhkDIiZlQefkw-66" value="" style="whiteSpace=wrap;html=1;fillColor=#d5e8d4;strokeColor=#82b366;" parent="YKplfmEHhkDIiZlQefkw-1" vertex="1">
                    <mxGeometry x="190" y="475" width="40" height="20" as="geometry"/>
                </mxCell>
                <mxCell id="YKplfmEHhkDIiZlQefkw-67" value="我们" style="text;html=1;resizable=0;autosize=1;align=center;verticalAlign=middle;points=[];fillColor=none;strokeColor=none;rounded=0;" parent="YKplfmEHhkDIiZlQefkw-1" vertex="1">
                    <mxGeometry x="20" y="705" width="40" height="20" as="geometry"/>
                </mxCell>
                <mxCell id="YKplfmEHhkDIiZlQefkw-68" value="一起" style="text;html=1;resizable=0;autosize=1;align=center;verticalAlign=middle;points=[];fillColor=none;strokeColor=none;rounded=0;" parent="YKplfmEHhkDIiZlQefkw-1" vertex="1">
                    <mxGeometry x="110" y="705" width="40" height="20" as="geometry"/>
                </mxCell>
                <mxCell id="YKplfmEHhkDIiZlQefkw-69" value="去" style="text;html=1;resizable=0;autosize=1;align=center;verticalAlign=middle;points=[];fillColor=none;strokeColor=none;rounded=0;" parent="YKplfmEHhkDIiZlQefkw-1" vertex="1">
                    <mxGeometry x="195" y="705" width="30" height="20" as="geometry"/>
                </mxCell>
                <mxCell id="YKplfmEHhkDIiZlQefkw-70" value="图书馆" style="text;html=1;resizable=0;autosize=1;align=center;verticalAlign=middle;points=[];fillColor=none;strokeColor=none;rounded=0;" parent="YKplfmEHhkDIiZlQefkw-1" vertex="1">
                    <mxGeometry x="265" y="705" width="50" height="20" as="geometry"/>
                </mxCell>
                <mxCell id="YKplfmEHhkDIiZlQefkw-71" value="学习" style="text;html=1;resizable=0;autosize=1;align=center;verticalAlign=middle;points=[];fillColor=none;strokeColor=none;rounded=0;" parent="YKplfmEHhkDIiZlQefkw-1" vertex="1">
                    <mxGeometry x="350" y="705" width="40" height="20" as="geometry"/>
                </mxCell>
                <mxCell id="YKplfmEHhkDIiZlQefkw-72" value="吧" style="text;html=1;resizable=0;autosize=1;align=center;verticalAlign=middle;points=[];fillColor=none;strokeColor=none;rounded=0;" parent="YKplfmEHhkDIiZlQefkw-1" vertex="1">
                    <mxGeometry x="435" y="705" width="30" height="20" as="geometry"/>
                </mxCell>
                <mxCell id="YKplfmEHhkDIiZlQefkw-73" value="学习" style="text;html=1;resizable=0;autosize=1;align=center;verticalAlign=middle;points=[];fillColor=none;strokeColor=none;rounded=0;" parent="YKplfmEHhkDIiZlQefkw-1" vertex="1">
                    <mxGeometry x="190" y="445" width="40" height="20" as="geometry"/>
                </mxCell>
                <mxCell id="YKplfmEHhkDIiZlQefkw-78" style="edgeStyle=none;rounded=0;orthogonalLoop=1;jettySize=auto;html=1;exitX=0.5;exitY=0;exitDx=0;exitDy=0;entryX=0.5;entryY=1;entryDx=0;entryDy=0;startArrow=none;startFill=0;endArrow=classic;endFill=1;strokeWidth=1;fontSize=27;" parent="YKplfmEHhkDIiZlQefkw-1" source="YKplfmEHhkDIiZlQefkw-74" target="YKplfmEHhkDIiZlQefkw-66" edge="1">
                    <mxGeometry relative="1" as="geometry"/>
                </mxCell>
                <mxCell id="YKplfmEHhkDIiZlQefkw-74" value="+" style="ellipse;whiteSpace=wrap;html=1;fillColor=#f8cecc;strokeColor=#b85450;shadow=0;fontSize=27;" parent="YKplfmEHhkDIiZlQefkw-1" vertex="1">
                    <mxGeometry x="192.5" y="570" width="35" height="30" as="geometry"/>
                </mxCell>
            </root>
        </mxGraphModel>
    </diagram>
</mxfile>